<svg width="1235" height="180" viewBox="0 0 1235 180" fill="none" xmlns="http://www.w3.org/2000/svg">
<path d="M233.485 177.248C233.792 177.248 234.087 177.125 234.304 176.907C234.521 176.688 234.643 176.392 234.643 176.082C234.583 154.033 234.602 137.839 234.7 127.502C234.83 113.708 234.406 103.626 233.428 97.2562C231.238 83.022 226.398 69.5243 218.909 56.763C213.843 48.1268 208.368 40.8929 202.481 35.0611C192.218 24.8869 180.087 16.1882 166.708 10.3592C153.931 4.78835 140.664 1.73658 126.908 1.20396C118.764 0.886009 109.641 0.845265 102.239 1.7828C76.6238 5.03291 54.4953 15.5795 35.8534 33.4225C22.0105 46.6675 12.2547 62.38 6.58606 80.56C4.83056 86.1798 3.45822 92.4327 2.46905 99.3188C1.83316 103.781 1.52065 110.172 1.53152 118.493C1.59131 153.63 1.62664 172.808 1.63751 176.025C1.63751 176.339 1.7629 176.639 1.98612 176.861C2.20934 177.083 2.51209 177.207 2.82776 177.207H5.50993C5.64268 177.207 5.77413 177.181 5.89678 177.13C6.01942 177.08 6.13086 177.005 6.22474 176.911C6.31861 176.817 6.39307 176.706 6.44387 176.583C6.49468 176.461 6.52082 176.329 6.52082 176.196C6.53713 153.777 6.5154 135.358 6.45562 120.939C6.42301 112.053 6.77357 105.251 7.50729 100.534C8.44754 94.4681 10.2682 87.9026 12.9694 80.8372C20.4806 61.1897 32.6196 45.0642 49.3865 32.4605C65.7729 20.1503 84.0806 12.7669 104.31 10.3103C106.902 10.0005 109.726 9.83196 112.78 9.80479C120.264 9.74772 127.12 9.4461 133.968 10.3836C152.594 12.9218 169.334 19.5606 184.187 30.3001C205.264 45.5452 219.368 65.8122 226.499 91.1011C228.526 98.2753 229.545 104.683 229.556 110.325C229.605 128.26 229.618 150.185 229.597 176.099C229.597 176.404 229.717 176.696 229.931 176.911C230.145 177.127 230.435 177.248 230.738 177.248H233.485Z" stroke="#CCA244" stroke-width="2"/>
<path d="M153.456 97.1448C150.994 83.9215 145.722 71.6548 137.64 60.3446C132.699 53.4232 125.754 47.2762 119.338 41.8875C119.059 41.6524 118.707 41.5234 118.343 41.5234C117.979 41.5234 117.626 41.6524 117.348 41.8875C113.827 44.8468 108.788 48.9964 105.682 52.29C94.497 64.1518 85.5538 80.2529 83.2222 96.7046C83.2028 96.838 83.1507 96.9644 83.0704 97.0727C82.9901 97.181 82.8843 97.2677 82.7623 97.325C82.6404 97.3824 82.5061 97.4086 82.3715 97.4013C82.237 97.394 82.1063 97.3536 81.9912 97.2834C80.0835 96.1203 77.6921 94.9844 74.817 93.8757C63.6971 89.5794 49.4792 86.514 36.9896 87.5494C36.7847 87.5658 36.5911 87.6492 36.4391 87.7863C36.2872 87.9235 36.1855 88.1068 36.1499 88.3076C35.6553 91.0794 35.3673 94.1338 35.2858 97.4709C34.3238 135.755 62.3275 168.161 99.1603 175.604C106.34 177.055 114.356 177.675 123.21 177.463C134.314 177.202 144.651 174.642 154.719 170.183C167.997 164.313 178.818 155.304 187.182 143.157C196.422 129.733 200.933 114.917 200.715 98.7101C200.658 94.2915 200.715 91.536 200.275 88.0141C200.254 87.8562 200.179 87.7108 200.063 87.6034C199.946 87.4961 199.797 87.4336 199.639 87.4271C183.476 86.8075 168.193 90.1011 153.79 97.3079C153.758 97.3235 153.722 97.3316 153.686 97.3315C153.651 97.3315 153.615 97.3233 153.583 97.3076C153.551 97.2919 153.523 97.2691 153.501 97.2409C153.479 97.2127 153.463 97.1798 153.456 97.1448Z" stroke="#9AA985" stroke-width="2"/>
<path d="M118.037 137.245C118.053 137.245 118.07 137.245 118.086 137.245C118.111 137.244 118.134 137.239 118.152 137.231C118.169 137.224 118.181 137.215 118.184 137.205C123.7 122.726 132.94 111.011 145.902 102.059C146.057 101.952 146.179 101.804 146.256 101.633C146.332 101.462 146.359 101.274 146.334 101.089C143.84 82.151 133.592 64.1097 118.632 51.7587C118.54 51.6826 118.412 51.6445 118.249 51.6445C118.081 51.6445 117.95 51.6826 117.858 51.7587C102.841 64.0363 92.5037 82.0206 89.9112 100.951C89.8865 101.135 89.9137 101.323 89.99 101.494C90.0662 101.665 90.1884 101.813 90.3433 101.921C103.257 110.937 112.436 122.699 117.882 137.205C117.886 137.215 117.897 137.224 117.915 137.231C117.932 137.239 117.955 137.244 117.98 137.245C117.996 137.245 118.015 137.245 118.037 137.245Z" stroke="#9AA985" stroke-width="2"/>
<path d="M108.68 169.422C108.717 169.425 108.754 169.416 108.786 169.396C108.818 169.376 108.842 169.346 108.855 169.311C108.868 169.276 108.869 169.237 108.858 169.201C108.847 169.165 108.824 169.134 108.794 169.112C99.8342 162.468 93.4427 153.419 88.7061 143.212C83.4179 131.831 81.1433 119.695 81.8825 106.803C81.8998 106.511 81.8339 106.22 81.6924 105.964C81.5509 105.709 81.3397 105.499 81.0836 105.36C69.1919 98.9359 56.58 95.4983 43.248 95.0472C43.1987 95.0451 43.1495 95.0526 43.1032 95.0694C43.0569 95.0863 43.0143 95.1121 42.978 95.1454C42.9416 95.1787 42.9122 95.2189 42.8914 95.2636C42.8706 95.3083 42.8588 95.3566 42.8567 95.4059C42.0904 107.722 44.5171 119.293 50.1368 130.119C56.8001 142.973 65.7923 152.666 77.1133 159.199C87.168 165.003 97.6901 168.411 108.68 169.422Z" stroke="#9AA985" stroke-width="2"/>
<path d="M127.678 169.663C138.662 168.608 149.17 165.16 159.203 159.317C170.503 152.741 179.457 143.015 186.066 130.14C191.647 119.291 194.031 107.71 193.215 95.3939C193.209 95.2959 193.165 95.2042 193.091 95.1386C193.018 95.0731 192.922 95.0389 192.824 95.0434C179.492 95.5434 166.894 99.0272 155.029 105.495C154.773 105.636 154.563 105.847 154.423 106.104C154.283 106.361 154.219 106.653 154.239 106.946C155.027 119.832 152.798 131.977 147.554 143.379C142.85 153.602 136.499 162.676 127.564 169.353C127.533 169.375 127.511 169.406 127.5 169.442C127.489 169.478 127.49 169.516 127.503 169.551C127.516 169.587 127.54 169.617 127.572 169.637C127.603 169.657 127.64 169.666 127.678 169.663Z" stroke="#9AA985" stroke-width="2"/>
<path d="M95.3039 140.417C99.5323 149.439 105.769 157.228 114.014 163.782C114.101 163.848 114.188 163.861 114.275 163.823C114.362 163.78 114.405 163.703 114.405 163.595C114.644 153.067 112.65 143.292 108.421 134.27C104.193 125.248 97.9589 117.46 89.7194 110.905C89.627 110.835 89.5374 110.821 89.4504 110.865C89.3689 110.903 89.3254 110.979 89.32 111.093C89.0808 121.621 91.0755 131.395 95.3039 140.417Z" stroke="#9AA985" stroke-width="2"/>
<path d="M121.758 163.92C121.851 163.963 121.959 163.933 122.084 163.83C133.101 155.069 140.509 144.079 144.308 130.861C146.183 124.356 146.697 117.899 146.982 111.181C146.993 110.986 146.917 110.85 146.754 110.774C146.585 110.698 146.43 110.722 146.289 110.847C141.3 115.355 136.653 119.872 132.837 125.464C125.082 136.823 121.34 149.539 121.611 163.61C121.617 163.767 121.666 163.871 121.758 163.92Z" stroke="#9AA985" stroke-width="2"/>
<path d="M233.485 177.248H230.738C230.435 177.248 230.145 177.127 229.931 176.911C229.717 176.696 229.597 176.404 229.597 176.099C229.618 150.185 229.605 128.26 229.556 110.325C229.545 104.683 228.526 98.2753 226.499 91.1011C219.368 65.8122 205.264 45.5452 184.187 30.3001C169.334 19.5606 152.594 12.9218 133.968 10.3836C127.12 9.4461 120.264 9.74772 112.78 9.80479C109.726 9.83196 106.902 10.0005 104.31 10.3103C84.0806 12.7669 65.7729 20.1503 49.3865 32.4605C32.6196 45.0642 20.4806 61.1897 12.9694 80.8372C10.2682 87.9026 8.44754 94.4681 7.50729 100.534C6.77357 105.251 6.42301 112.053 6.45562 120.939C6.5154 135.358 6.53713 153.777 6.52082 176.196C6.52082 176.329 6.49468 176.461 6.44387 176.583C6.39307 176.706 6.31861 176.817 6.22474 176.911C6.13086 177.005 6.01942 177.08 5.89678 177.13C5.77413 177.181 5.64268 177.207 5.50993 177.207H2.82776C2.51209 177.207 2.20934 177.083 1.98612 176.861C1.7629 176.639 1.63751 176.339 1.63751 176.025C1.62664 172.808 1.59131 153.63 1.53152 118.493C1.52065 110.172 1.83316 103.781 2.46905 99.3188C3.45822 92.4327 4.83056 86.1798 6.58606 80.56C12.2547 62.38 22.0105 46.6675 35.8534 33.4225C54.4953 15.5795 76.6238 5.03291 102.239 1.7828C109.641 0.845265 118.764 0.886009 126.908 1.20396C140.664 1.73658 153.931 4.78835 166.708 10.3592C180.087 16.1882 192.218 24.8869 202.481 35.0611C208.368 40.8929 213.843 48.1268 218.909 56.763C226.398 69.5243 231.238 83.022 233.428 97.2562C234.406 103.626 234.83 113.708 234.7 127.502C234.602 137.839 234.583 154.033 234.643 176.082C234.643 176.392 234.521 176.688 234.304 176.907C234.087 177.125 233.792 177.248 233.485 177.248Z" fill="#CCA244"/>
<path d="M153.456 97.1448C153.463 97.1798 153.479 97.2127 153.501 97.2409C153.523 97.2691 153.551 97.2919 153.583 97.3076C153.615 97.3233 153.651 97.3315 153.686 97.3315C153.722 97.3316 153.758 97.3235 153.79 97.3079C168.193 90.1011 183.476 86.8075 199.639 87.4271C199.797 87.4336 199.946 87.4961 200.063 87.6034C200.179 87.7108 200.254 87.8562 200.275 88.0141C200.715 91.536 200.658 94.2915 200.715 98.7101C200.933 114.917 196.422 129.733 187.182 143.157C178.818 155.304 167.997 164.313 154.719 170.183C144.651 174.642 134.314 177.202 123.21 177.463C114.356 177.675 106.34 177.055 99.1603 175.604C62.3275 168.161 34.3238 135.755 35.2858 97.4709C35.3673 94.1338 35.6553 91.0794 36.1499 88.3076C36.1855 88.1068 36.2872 87.9235 36.4391 87.7863C36.5911 87.6492 36.7847 87.5658 36.9896 87.5494C49.4792 86.514 63.6971 89.5794 74.817 93.8757C77.6921 94.9844 80.0835 96.1203 81.9912 97.2834C82.1063 97.3536 82.237 97.394 82.3715 97.4013C82.5061 97.4086 82.6404 97.3824 82.7623 97.325C82.8843 97.2677 82.9901 97.181 83.0704 97.0727C83.1507 96.9644 83.2028 96.838 83.2222 96.7046C85.5538 80.2529 94.497 64.1518 105.682 52.29C108.788 48.9964 113.827 44.8468 117.348 41.8875C117.626 41.6524 117.979 41.5234 118.343 41.5234C118.707 41.5234 119.059 41.6524 119.338 41.8875C125.754 47.2762 132.699 53.4232 137.64 60.3446C145.722 71.6548 150.994 83.9215 153.456 97.1448ZM118.033 137.247C118.05 137.247 118.066 137.247 118.082 137.247C118.107 137.245 118.13 137.24 118.148 137.233C118.165 137.225 118.177 137.216 118.18 137.206C123.696 122.727 132.936 111.012 145.898 102.061C146.053 101.953 146.175 101.805 146.252 101.634C146.328 101.463 146.355 101.275 146.33 101.091C143.836 82.1525 133.588 64.1111 118.628 51.7601C118.536 51.684 118.408 51.6459 118.245 51.6459C118.077 51.6459 117.946 51.684 117.854 51.7601C102.837 64.0377 92.4997 82.022 89.9072 100.952C89.8825 101.136 89.9098 101.324 89.986 101.496C90.0622 101.667 90.1845 101.814 90.3393 101.922C103.253 110.939 112.432 122.7 117.878 137.206C117.882 137.216 117.893 137.225 117.911 137.233C117.928 137.24 117.951 137.245 117.976 137.247C117.992 137.247 118.011 137.247 118.033 137.247ZM108.682 169.425C108.72 169.428 108.757 169.419 108.789 169.398C108.82 169.378 108.845 169.348 108.857 169.313C108.87 169.278 108.871 169.239 108.86 169.204C108.849 169.168 108.827 169.137 108.796 169.115C99.8369 162.47 93.4454 153.421 88.7088 143.214C83.4206 131.834 81.146 119.697 81.8852 106.805C81.9025 106.513 81.8366 106.222 81.6951 105.967C81.5536 105.711 81.3424 105.501 81.0863 105.362C69.1946 98.9384 56.5827 95.5008 43.2507 95.0497C43.2014 95.0475 43.1522 95.055 43.1059 95.0719C43.0596 95.0887 43.017 95.1145 42.9807 95.1478C42.9443 95.1812 42.9149 95.2213 42.8941 95.266C42.8733 95.3107 42.8615 95.3591 42.8594 95.4083C42.0931 107.724 44.5198 119.295 50.1395 130.122C56.8028 142.975 65.795 152.668 77.116 159.201C87.1707 165.006 97.6928 168.414 108.682 169.425ZM127.678 169.661C138.662 168.607 149.17 165.158 159.203 159.315C170.502 152.739 179.457 143.013 186.065 130.138C191.647 119.29 194.03 107.708 193.215 95.3921C193.209 95.294 193.164 95.2023 193.091 95.1368C193.018 95.0712 192.922 95.037 192.824 95.0415C179.492 95.5415 166.894 99.0253 155.029 105.493C154.773 105.634 154.563 105.845 154.423 106.102C154.283 106.359 154.219 106.651 154.238 106.944C155.026 119.83 152.798 131.975 147.553 143.377C142.849 153.601 136.499 162.674 127.563 169.351C127.533 169.373 127.51 169.404 127.499 169.44C127.488 169.476 127.489 169.514 127.502 169.55C127.515 169.585 127.54 169.615 127.571 169.635C127.603 169.655 127.64 169.664 127.678 169.661ZM95.3042 140.418C99.5326 149.44 105.769 157.228 114.014 163.783C114.101 163.848 114.188 163.862 114.275 163.824C114.362 163.78 114.405 163.704 114.405 163.595C114.644 153.068 112.65 143.293 108.421 134.271C104.193 125.249 97.9591 117.461 89.7197 110.906C89.6273 110.836 89.5377 110.822 89.4507 110.865C89.3692 110.903 89.3257 110.98 89.3202 111.094C89.0811 121.621 91.0758 131.396 95.3042 140.418ZM121.759 163.922C121.851 163.965 121.96 163.935 122.085 163.832C133.102 155.071 140.51 144.081 144.309 130.863C146.184 124.358 146.697 117.901 146.983 111.183C146.993 110.988 146.917 110.852 146.754 110.776C146.586 110.7 146.431 110.724 146.29 110.849C141.3 115.357 136.653 119.874 132.838 125.466C125.082 136.826 121.34 149.541 121.612 163.612C121.618 163.769 121.666 163.873 121.759 163.922Z" fill="#9AA985"/>
<path d="M651.61 178.471C651.738 178.47 651.861 178.426 651.959 178.345C652.057 178.265 652.125 178.152 652.15 178.026C652.176 177.901 652.158 177.769 652.1 177.654C652.042 177.538 651.947 177.446 651.83 177.391C644.77 174.278 639.797 169.028 636.91 161.641C625.61 132.768 612.48 97.9542 597.52 57.2009C597.443 56.9981 597.306 56.8235 597.127 56.7002C596.949 56.577 596.737 56.511 596.52 56.5109C582.953 56.4976 576.067 56.4843 575.86 56.4709C574.287 56.3709 572.907 56.1776 571.72 55.8909C571.593 55.8609 571.461 55.8593 571.331 55.8863C571.202 55.9133 571.078 55.9683 570.968 56.0478C570.857 56.1274 570.762 56.2299 570.689 56.3491C570.615 56.4683 570.565 56.6016 570.54 56.7409C570.48 57.1076 570.64 57.4009 571.02 57.6209C574.153 59.4609 576.313 61.8509 577.5 64.7909C578.54 67.3909 577.92 69.4209 576.88 71.9809C563.747 104.381 552.053 133.741 541.8 160.061C539.84 165.108 538.233 168.351 536.98 169.791C534.487 172.651 531.617 174.921 528.37 176.601C528.215 176.681 528.08 176.797 527.979 176.939C527.877 177.082 527.811 177.246 527.785 177.419C527.76 177.592 527.776 177.769 527.832 177.934C527.889 178.1 527.984 178.249 528.11 178.371C528.163 178.424 528.403 178.451 528.83 178.451C539.043 178.471 548 178.468 555.7 178.441C556.36 178.434 556.88 178.338 557.26 178.151C557.355 178.102 557.436 178.028 557.493 177.937C557.55 177.846 557.582 177.742 557.585 177.635C557.588 177.528 557.562 177.422 557.51 177.328C557.458 177.234 557.382 177.155 557.29 177.101C551.7 173.781 547.87 171.071 548.16 163.601C548.233 161.668 549.323 157.901 551.43 152.301C554.31 144.674 556.067 139.898 556.7 137.971C556.759 137.793 556.872 137.638 557.023 137.529C557.174 137.419 557.355 137.36 557.54 137.361H603.79C604.29 137.361 604.778 137.512 605.191 137.796C605.603 138.08 605.92 138.483 606.1 138.951C606.587 140.211 609.853 148.931 615.9 165.111C616.687 167.224 616.443 169.841 615.17 172.961C615.111 173.111 615.011 173.243 614.88 173.341L609.55 177.271C609.479 177.322 609.424 177.391 609.388 177.471C609.353 177.551 609.34 177.639 609.35 177.725C609.361 177.812 609.394 177.894 609.446 177.964C609.499 178.033 609.569 178.088 609.65 178.121C610.03 178.288 610.38 178.371 610.7 178.371C623.92 178.511 637.557 178.544 651.61 178.471Z" stroke="#CCA244" stroke-width="2"/>
<path d="M705.521 158.15C705.421 158.063 705.337 157.94 705.271 157.78C701.317 147.82 696.337 136.036 690.331 122.43C688.721 118.78 687.501 115.17 685.821 111.2C678.421 93.6797 672.844 80.693 669.091 72.2397C666.361 66.0997 664.811 61.0297 671.631 57.8097C672.331 57.483 672.531 57.0364 672.231 56.4697C672.171 56.3553 672.08 56.2599 671.969 56.1945C671.857 56.129 671.73 56.0963 671.601 56.0997C659.974 56.5931 647.814 56.6097 635.121 56.1497C634.99 56.1474 634.862 56.1871 634.756 56.2631C634.649 56.339 634.57 56.4471 634.53 56.5714C634.489 56.6957 634.49 56.8298 634.532 56.9537C634.573 57.0776 634.654 57.1849 634.761 57.2597C638.387 59.7064 641.397 62.7764 643.791 66.4697C648.431 73.6197 652.631 85.3897 656.181 93.5997C669.701 124.8 678.431 145.31 682.371 155.13C686.484 165.39 689.471 172.753 691.331 177.22C691.5 177.627 691.787 177.975 692.155 178.219C692.524 178.463 692.958 178.592 693.401 178.59L702.981 178.47C703.237 178.467 703.487 178.389 703.701 178.248C703.916 178.106 704.086 177.905 704.191 177.67C712.001 159.86 718.631 141.48 725.791 123.51C732.691 106.19 739.547 88.8431 746.361 71.4697C748.811 65.2297 752.161 60.3197 758.151 57.8997C758.308 57.8348 758.443 57.7245 758.537 57.583C758.632 57.4415 758.683 57.275 758.683 57.1047C758.683 56.9344 758.632 56.7679 758.537 56.6264C758.443 56.4849 758.308 56.3746 758.151 56.3097L757.331 55.9797C757.16 55.9073 756.971 55.8765 756.781 55.8897C748.001 56.4764 739.514 56.5464 731.321 56.0997C731.157 56.095 730.998 56.1459 730.867 56.2441C730.737 56.3422 730.643 56.4818 730.603 56.64C730.562 56.7981 730.576 56.9654 730.643 57.1143C730.71 57.2633 730.826 57.385 730.971 57.4597C739.621 61.6997 740.261 69.7097 737.211 78.0897C734.391 85.8697 731.411 93.5697 728.271 101.19C719.781 121.82 713.161 139.17 706.101 158C706.079 158.054 706.045 158.103 706.002 158.141C705.958 158.18 705.906 158.208 705.849 158.223C705.792 158.237 705.733 158.238 705.676 158.226C705.619 158.213 705.566 158.187 705.521 158.15Z" stroke="#CCA244" stroke-width="2"/>
<path d="M924.961 178.171C925.079 178.105 925.176 178.008 925.242 177.891C925.308 177.773 925.34 177.64 925.335 177.505C925.33 177.371 925.287 177.24 925.213 177.128C925.138 177.016 925.034 176.927 924.911 176.871C921.341 175.221 918.171 173.511 916.391 170.151C915.101 167.731 914.771 162.711 914.781 159.231C914.828 141.337 914.858 131.104 914.871 128.531C914.874 128.273 914.978 128.026 915.162 127.844C915.345 127.663 915.593 127.561 915.851 127.561H939.461C939.899 127.561 940.329 127.676 940.708 127.896C941.087 128.115 941.402 128.431 941.621 128.811L969.581 177.241C969.794 177.606 970.099 177.909 970.464 178.12C970.829 178.33 971.242 178.441 971.661 178.441H1000.99C1001.09 178.441 1001.19 178.419 1001.28 178.376C1001.37 178.334 1001.45 178.272 1001.52 178.196C1001.58 178.119 1001.63 178.029 1001.66 177.931C1001.69 177.834 1001.7 177.731 1001.68 177.631C1001.61 177.171 1001.37 176.864 1000.97 176.711C994.111 174.131 988.635 169.837 984.541 163.831C977.068 152.857 969.308 140.327 961.261 126.241C961.199 126.132 961.163 126.01 961.156 125.884C961.15 125.759 961.174 125.634 961.226 125.52C961.278 125.405 961.356 125.305 961.454 125.227C961.553 125.149 961.668 125.095 961.791 125.071C981.911 121.031 993.111 102.671 988.561 82.9308C987.268 77.3374 985.165 72.8574 982.251 69.4908C973.491 59.3708 958.841 56.1308 945.201 56.2408C940.255 56.2808 922.091 56.3308 890.711 56.3908C889.098 56.3908 887.228 56.2341 885.101 55.9208C884.715 55.8608 884.525 56.0541 884.531 56.5008C884.545 56.9008 884.761 57.2041 885.181 57.4108C889.008 59.2775 891.651 61.6908 893.111 64.6508C894.078 66.6041 894.575 70.0041 894.601 74.8508C894.788 110.731 894.775 140.221 894.561 163.321C894.495 170.107 891.401 174.464 885.281 176.391C885.073 176.455 884.89 176.584 884.761 176.76C884.631 176.935 884.561 177.148 884.561 177.366C884.561 177.584 884.631 177.796 884.761 177.972C884.89 178.147 885.073 178.277 885.281 178.341C885.368 178.361 885.841 178.374 886.701 178.381C908.761 178.481 921.115 178.507 923.761 178.461C924.241 178.447 924.641 178.351 924.961 178.171Z" stroke="#CCA244" stroke-width="2"/>
<path d="M1106.59 79.3695C1106.7 79.4743 1106.83 79.5456 1106.98 79.5745C1107.12 79.6034 1107.27 79.5885 1107.41 79.5318C1107.55 79.4751 1107.66 79.3791 1107.74 79.2559C1107.83 79.1326 1107.87 78.9878 1107.87 78.8395L1107.61 57.6395C1107.61 57.2744 1107.46 56.926 1107.2 56.6696C1106.94 56.4133 1106.59 56.2695 1106.23 56.2695H1018.97C1018.88 56.2693 1018.79 56.2931 1018.71 56.3386C1018.62 56.384 1018.56 56.4497 1018.51 56.5291C1018.46 56.6086 1018.43 56.6991 1018.43 56.7921C1018.43 56.885 1018.45 56.9771 1018.49 57.0595C1018.72 57.4928 1019.06 57.8228 1019.49 58.0495C1024.67 60.7162 1027.34 64.9862 1027.49 70.8596C1028.18 96.5062 1028.24 126.326 1027.67 160.32C1027.54 167.79 1026.9 173.78 1018.98 176.63C1018.81 176.692 1018.67 176.807 1018.57 176.958C1018.47 177.109 1018.42 177.288 1018.43 177.469C1018.44 177.65 1018.5 177.823 1018.62 177.963C1018.73 178.104 1018.89 178.204 1019.06 178.25C1019.12 178.27 1019.92 178.32 1021.45 178.4C1022.24 178.446 1053.04 178.463 1113.87 178.45C1114.13 178.45 1114.38 178.35 1114.56 178.171C1114.75 177.993 1114.86 177.749 1114.87 177.49L1116.17 149.299C1116.18 149.118 1116.13 148.939 1116.02 148.79C1115.53 148.09 1114.93 148.02 1114.2 148.58C1113.93 148.786 1113.76 148.966 1113.68 149.12C1108.88 158.2 1104.45 165.9 1094.75 169.14C1089.4 170.92 1083.15 171.16 1077.36 171.89C1074.34 172.276 1071.89 172.473 1070.01 172.48C1061.58 172.513 1054.64 172.486 1049.21 172.4C1048.98 172.397 1048.76 172.303 1048.59 172.139C1048.43 171.974 1048.33 171.752 1048.33 171.52L1047.69 119.32C1047.69 119.144 1047.76 118.975 1047.88 118.849C1048.01 118.724 1048.18 118.652 1048.35 118.65C1058.02 118.623 1065.93 118.716 1072.08 118.93C1081.57 119.26 1086.47 125.83 1090.62 133.42C1090.7 133.569 1090.82 133.699 1090.95 133.8C1091.09 133.901 1091.25 133.971 1091.41 134.005C1091.58 134.04 1091.75 134.037 1091.92 133.998C1092.08 133.959 1092.24 133.885 1092.37 133.78C1092.38 133.773 1092.44 133.71 1092.53 133.59C1092.6 133.499 1092.64 133.383 1092.64 133.26C1092.57 120.833 1092.56 109.516 1092.61 99.3095C1092.61 98.5895 1092.52 98.1362 1092.33 97.9495C1092.21 97.8244 1092.05 97.7334 1091.88 97.6839C1091.71 97.6344 1091.53 97.6281 1091.35 97.6653C1091.17 97.7025 1091 97.7821 1090.86 97.8977C1090.71 98.0133 1090.59 98.1614 1090.51 98.3295C1086.88 105.93 1081.58 112.15 1072.39 112.68C1069.73 112.833 1061.56 112.903 1047.87 112.89C1047.75 112.89 1047.64 112.843 1047.56 112.761C1047.48 112.678 1047.43 112.566 1047.43 112.45V62.0795C1047.43 61.9363 1047.49 61.799 1047.59 61.6977C1047.69 61.5964 1047.83 61.5396 1047.97 61.5396C1057.9 61.4796 1066.6 61.5062 1074.06 61.6195C1087.01 61.8095 1095.14 64.4795 1102.89 74.7795C1104.7 77.1729 1105.93 78.7028 1106.59 79.3695Z" stroke="#CCA244" stroke-width="2"/>
<path d="M1233.01 149.121C1232.92 148.842 1232.75 148.596 1232.52 148.414C1232.29 148.233 1232.01 148.123 1231.71 148.1C1231.42 148.077 1231.12 148.14 1230.86 148.282C1230.6 148.425 1230.39 148.64 1230.25 148.901C1229.4 150.528 1227.69 153.488 1225.13 157.781C1219.7 166.851 1211.33 170.011 1201.2 171.131C1189.74 172.405 1177.93 172.805 1165.75 172.331C1165.57 172.324 1165.41 172.249 1165.28 172.123C1165.16 171.996 1165.09 171.827 1165.08 171.651L1164.44 119.501C1164.44 119.397 1164.46 119.293 1164.5 119.196C1164.54 119.099 1164.6 119.011 1164.67 118.936C1164.74 118.862 1164.83 118.803 1164.93 118.762C1165.02 118.722 1165.13 118.701 1165.23 118.701C1172.97 118.748 1178.96 118.778 1183.2 118.791C1188.32 118.805 1192.07 119.151 1194.45 119.831C1201.79 121.941 1204.11 128.091 1207.64 133.711C1207.72 133.832 1207.82 133.932 1207.95 134.001C1208.07 134.07 1208.21 134.106 1208.35 134.106C1208.5 134.106 1208.64 134.07 1208.76 134.001C1208.89 133.932 1209 133.832 1209.07 133.711C1209.34 133.285 1209.48 132.921 1209.48 132.621C1209.58 127.388 1209.61 116.465 1209.57 99.8513C1209.57 99.258 1209.5 98.7813 1209.37 98.4213C1209.32 98.2671 1209.22 98.1327 1209.09 98.0347C1208.95 97.9367 1208.8 97.8794 1208.63 97.8698C1208.47 97.8602 1208.31 97.8989 1208.16 97.9809C1208.02 98.0629 1207.91 98.1847 1207.83 98.3313C1203.66 106.751 1197.92 112.791 1187.71 112.801C1182.71 112.808 1175.16 112.821 1165.07 112.841C1164.95 112.841 1164.84 112.793 1164.75 112.707C1164.67 112.621 1164.62 112.504 1164.61 112.381L1164 62.2913C1164 62.1872 1164.02 62.0838 1164.06 61.9873C1164.1 61.8909 1164.16 61.8032 1164.23 61.7296C1164.3 61.656 1164.39 61.5979 1164.48 61.5586C1164.58 61.5194 1164.68 61.4999 1164.78 61.5013C1180.74 61.5346 1190.29 61.6013 1193.45 61.7013C1196.33 61.7879 1199.65 62.1979 1203.42 62.9313C1213.22 64.8313 1218.88 71.4713 1224.23 79.3313C1224.33 79.4712 1224.46 79.5827 1224.61 79.6544C1224.77 79.7261 1224.94 79.7552 1225.1 79.7389C1225.27 79.7226 1225.44 79.6614 1225.57 79.5616C1225.71 79.4618 1225.82 79.3271 1225.89 79.1713C1225.99 78.958 1226.04 78.6146 1226.05 78.1413C1226.17 73.6146 1226.05 66.6013 1225.68 57.1013C1225.67 56.8803 1225.58 56.6717 1225.42 56.519C1225.26 56.3663 1225.05 56.2812 1224.83 56.2813H1136.18C1136.04 56.2797 1135.9 56.3262 1135.78 56.4138C1135.66 56.5014 1135.58 56.625 1135.54 56.7654C1135.5 56.9058 1135.51 57.0551 1135.56 57.19C1135.62 57.3249 1135.72 57.4379 1135.84 57.5113C1141.47 60.8179 1144.31 65.7579 1144.36 72.3313C1144.6 100.778 1144.63 129.085 1144.45 157.251C1144.39 165.401 1143.7 173.181 1135.14 176.661C1134.98 176.729 1134.84 176.846 1134.75 176.994C1134.66 177.143 1134.61 177.318 1134.62 177.493C1134.63 177.669 1134.7 177.837 1134.81 177.974C1134.91 178.112 1135.06 178.212 1135.23 178.261C1135.75 178.408 1136.34 178.481 1136.99 178.481C1147.68 178.461 1177.5 178.458 1226.46 178.471C1228.14 178.471 1229.59 178.405 1230.83 178.271C1231.06 178.247 1231.27 178.138 1231.42 177.967C1231.58 177.795 1231.66 177.572 1231.66 177.341C1231.65 169.035 1232.13 160.628 1233.1 152.121C1233.26 150.768 1233.23 149.768 1233.01 149.121Z" stroke="#CCA244" stroke-width="2"/>
<path d="M296.714 178.359C296.822 178.356 296.927 178.318 297.013 178.253C297.099 178.187 297.162 178.096 297.194 177.992C297.226 177.889 297.225 177.778 297.191 177.675C297.157 177.572 297.091 177.483 297.004 177.419C295.314 176.209 293.014 175.339 291.324 173.899C288.63 171.612 287.14 168.756 286.854 165.329C286.674 163.176 287.42 160.046 289.094 155.939C292.334 147.959 294.644 141.986 296.024 138.019C296.094 137.818 296.225 137.643 296.399 137.52C296.573 137.396 296.781 137.329 296.994 137.329H343.204C343.472 137.329 343.734 137.41 343.955 137.562C344.177 137.714 344.347 137.929 344.444 138.179C348.264 148.166 350.957 155.189 352.524 159.249C354.13 163.416 354.96 165.999 355.014 166.999C355.264 172.069 352.254 174.689 348.464 177.079C348.355 177.15 348.269 177.252 348.22 177.373C348.171 177.494 348.159 177.626 348.188 177.753C348.217 177.879 348.283 177.992 348.379 178.078C348.475 178.163 348.596 178.216 348.724 178.229C350.037 178.376 351.884 178.452 354.264 178.459C375.537 178.479 387.13 178.486 389.044 178.479C389.166 178.478 389.287 178.451 389.398 178.401C389.51 178.351 389.611 178.278 389.695 178.186C389.779 178.095 389.845 177.987 389.887 177.869C389.93 177.751 389.949 177.625 389.944 177.499C389.924 177.172 389.807 176.956 389.594 176.849C380.624 172.509 376.804 165.169 373.104 155.309C369.87 146.682 365.104 134.362 358.804 118.349C351.444 99.6489 344.574 80.4189 336.334 57.8089C336.178 57.3888 335.899 57.0265 335.532 56.7708C335.165 56.5151 334.73 56.3783 334.284 56.3789H307.934C307.858 56.3796 307.785 56.404 307.724 56.4488C307.663 56.4935 307.618 56.5563 307.595 56.6282C307.571 56.7001 307.571 56.7775 307.594 56.8494C307.618 56.9213 307.663 56.9842 307.724 57.0289C310.314 58.9189 312.524 59.2489 314.604 62.7089C316.557 65.9689 316.864 69.2623 315.524 72.5889C297.004 118.409 285.194 148.189 280.094 161.929C277.434 169.099 273.544 174.409 266.344 177.059C266.239 177.1 266.15 177.172 266.088 177.266C266.027 177.36 265.996 177.471 266 177.583C266.005 177.695 266.044 177.803 266.113 177.892C266.182 177.981 266.276 178.046 266.384 178.079C267.057 178.266 268.067 178.376 269.414 178.409C277.814 178.602 286.914 178.586 296.714 178.359Z" stroke="#CCA244" stroke-width="2"/>
<path d="M500.311 145.149C476.481 116.549 458.501 94.4191 429.481 58.8191C428.441 57.5391 427.344 56.7092 426.191 56.3292C426.131 56.3092 426.07 56.2991 426.011 56.2991L403.671 56.3891C403.531 56.3927 403.397 56.4431 403.29 56.5322C403.183 56.6214 403.109 56.744 403.08 56.8804C403.051 57.0168 403.069 57.159 403.131 57.284C403.193 57.4089 403.295 57.5094 403.421 57.5691C408.841 60.0191 414.161 65.5592 414.191 71.8292C414.304 98.9625 414.347 125.879 414.321 152.579C414.311 162.499 414.801 172.159 404.751 176.739C404.297 176.946 403.954 177.202 403.721 177.509C403.656 177.597 403.617 177.7 403.608 177.809C403.599 177.917 403.619 178.026 403.668 178.123C403.717 178.22 403.791 178.302 403.883 178.36C403.976 178.417 404.082 178.448 404.191 178.449H431.321C431.42 178.449 431.518 178.425 431.605 178.379C431.693 178.333 431.769 178.266 431.825 178.184C431.881 178.103 431.916 178.009 431.928 177.91C431.939 177.812 431.927 177.712 431.891 177.619C431.731 177.219 431.344 176.926 430.731 176.739C423.311 174.459 420.491 167.329 420.491 160.329C420.457 118.202 420.447 91.7558 420.461 80.9891C420.463 80.9037 420.49 80.8204 420.54 80.7504C420.589 80.6804 420.658 80.6272 420.738 80.5978C420.817 80.5684 420.903 80.5642 420.984 80.5859C421.065 80.6076 421.137 80.6541 421.191 80.7192C436.664 99.4258 452.547 118.723 468.841 138.609C474.921 146.029 480.117 152.252 484.431 157.279C491.484 165.512 496.641 171.786 499.901 176.099C501.831 178.649 503.411 178.869 506.271 178.249C506.464 178.208 506.64 178.108 506.774 177.963C506.908 177.818 506.994 177.635 507.021 177.439C507.761 171.669 507.181 164.509 506.851 152.669C506.724 148.069 506.674 141.346 506.701 132.499C506.767 109.699 506.824 92.8092 506.871 81.8292C506.897 76.6225 507.097 72.5425 507.471 69.5892C508.251 63.5225 511.427 59.6158 517.001 57.8691C517.14 57.8246 517.269 57.7503 517.377 57.6511C517.486 57.5518 517.572 57.4299 517.629 57.2936C517.687 57.1573 517.715 57.0097 517.712 56.8606C517.709 56.7115 517.674 56.5644 517.611 56.4291C517.497 56.1825 517.271 56.0658 516.931 56.0792C509.617 56.2792 500.624 56.2792 489.951 56.0792C489.571 56.0725 489.234 56.2025 488.941 56.4692C488.867 56.5381 488.81 56.6243 488.777 56.72C488.744 56.8156 488.735 56.9176 488.751 57.0169C488.767 57.1161 488.807 57.2095 488.868 57.2884C488.929 57.3674 489.009 57.4295 489.101 57.4692C491.394 58.4625 492.604 58.9925 492.731 59.0591C497.377 61.4725 499.861 65.4025 500.181 70.8492C501.611 95.0692 501.031 118.539 500.971 144.909C500.973 144.987 500.951 145.063 500.907 145.128C500.863 145.192 500.8 145.241 500.727 145.267C500.654 145.294 500.575 145.297 500.5 145.275C500.425 145.254 500.359 145.21 500.311 145.149Z" stroke="#CCA244" stroke-width="2"/>
<path d="M744.423 178.029C745.01 178.296 745.667 178.433 746.393 178.439C748.247 178.459 757.447 178.449 773.993 178.409C774.09 178.408 774.186 178.383 774.271 178.337C774.357 178.291 774.429 178.225 774.483 178.145C774.536 178.065 774.569 177.973 774.577 177.878C774.586 177.783 774.571 177.687 774.533 177.599C774.24 176.926 773.727 176.419 772.993 176.079C764.413 172.119 763.953 164.549 766.963 156.589C769.443 150.063 772.007 143.903 774.653 138.109C774.755 137.888 774.917 137.701 775.121 137.57C775.325 137.438 775.562 137.369 775.803 137.369H822.323C822.503 137.37 822.677 137.424 822.822 137.524C822.967 137.624 823.075 137.766 823.133 137.929C826.163 146.159 829.863 154.859 832.623 163.659C834.813 170.629 831.443 173.799 826.023 177.009C825.877 177.097 825.763 177.23 825.699 177.388C825.635 177.547 825.625 177.722 825.671 177.887C825.716 178.051 825.814 178.197 825.95 178.3C826.086 178.403 826.253 178.459 826.423 178.459H867.053C867.215 178.46 867.373 178.406 867.501 178.306C867.63 178.207 867.721 178.068 867.76 177.912C867.8 177.755 867.785 177.591 867.718 177.445C867.652 177.3 867.537 177.181 867.393 177.109C860.023 173.239 856.893 167.829 853.613 159.429C849.073 147.789 842.843 131.939 834.923 111.879C832.337 105.333 825.607 87.2393 814.733 57.5993C814.615 57.2832 814.405 57.0102 814.13 56.8158C813.855 56.6214 813.529 56.5145 813.193 56.5092L787.863 56.2192C787.808 56.2163 787.753 56.2266 787.704 56.2493C787.656 56.2721 787.614 56.3065 787.583 56.3493C787.217 56.8626 787.297 57.2959 787.823 57.6492C791.417 60.0559 793.937 63.0526 795.383 66.6392C795.621 67.2298 795.625 67.888 795.393 68.4793C781.033 105.049 769.353 133.229 756.993 164.369C755.587 167.903 753.563 170.906 750.923 173.379C750.883 173.413 750.84 173.443 750.793 173.469L744.383 177.369C744.324 177.404 744.276 177.454 744.243 177.514C744.211 177.575 744.196 177.643 744.2 177.712C744.204 177.78 744.227 177.846 744.267 177.902C744.306 177.958 744.36 178.002 744.423 178.029Z" stroke="#CCA244" stroke-width="2"/>
<path d="M559.844 130.67C559.824 130.718 559.817 130.77 559.822 130.822C559.827 130.873 559.845 130.923 559.873 130.966C559.902 131.009 559.94 131.045 559.986 131.07C560.031 131.095 560.082 131.109 560.134 131.11L603.004 131.56C603.055 131.56 603.106 131.547 603.151 131.524C603.197 131.5 603.236 131.465 603.266 131.423C603.295 131.381 603.314 131.332 603.321 131.281C603.327 131.23 603.321 131.178 603.304 131.13L582.444 76.37C582.422 76.3083 582.382 76.2549 582.329 76.2167C582.276 76.1785 582.213 76.1574 582.147 76.1563C582.082 76.1552 582.018 76.1741 581.963 76.2106C581.909 76.247 581.867 76.2991 581.844 76.36L559.844 130.67Z" stroke="#CCA244" stroke-width="2"/>
<path d="M914.422 61.9291L914.622 121.549C914.624 121.603 914.648 121.654 914.687 121.691C914.726 121.728 914.778 121.749 914.832 121.749L938.562 121.669C942.623 121.656 946.643 120.912 950.39 119.479C954.138 118.047 957.54 115.954 960.403 113.321C963.266 110.687 965.534 107.564 967.076 104.131C968.618 100.697 969.405 97.0198 969.392 93.3091L969.372 89.7691C969.345 82.2784 966.063 75.106 960.248 69.829C954.433 64.552 946.561 61.6025 938.362 61.6291L914.632 61.7191C914.604 61.7191 914.577 61.7245 914.552 61.7351C914.526 61.7457 914.503 61.7611 914.483 61.7806C914.464 61.8001 914.448 61.8233 914.438 61.8487C914.427 61.8742 914.422 61.9015 914.422 61.9291Z" stroke="#CCA244" stroke-width="2"/>
<path d="M800.193 76.6806C800.158 76.587 800.094 76.5062 800.012 76.4489C799.93 76.3916 799.832 76.3605 799.732 76.3594C799.632 76.3583 799.533 76.3874 799.45 76.4429C799.366 76.4984 799.301 76.5778 799.263 76.6707L777.373 130.611C777.342 130.686 777.33 130.769 777.338 130.85C777.346 130.932 777.375 131.01 777.42 131.078C777.465 131.146 777.527 131.202 777.599 131.241C777.671 131.28 777.752 131.3 777.833 131.301H819.823C819.904 131.301 819.983 131.281 820.054 131.244C820.125 131.207 820.186 131.154 820.233 131.088C820.279 131.022 820.308 130.946 820.319 130.867C820.329 130.787 820.321 130.706 820.293 130.631L800.193 76.6806Z" stroke="#CCA244" stroke-width="2"/>
<path d="M651.614 178.471C637.561 178.544 623.924 178.511 610.704 178.371C610.384 178.371 610.034 178.288 609.654 178.121C609.573 178.088 609.503 178.033 609.45 177.964C609.398 177.894 609.365 177.812 609.354 177.725C609.344 177.639 609.357 177.551 609.392 177.471C609.427 177.391 609.483 177.322 609.554 177.271L614.884 173.341C615.015 173.243 615.115 173.111 615.174 172.961C616.447 169.841 616.691 167.224 615.904 165.111C609.857 148.931 606.591 140.211 606.104 138.951C605.924 138.483 605.607 138.08 605.194 137.796C604.782 137.512 604.294 137.361 603.794 137.361H557.544C557.359 137.36 557.177 137.419 557.027 137.529C556.876 137.638 556.763 137.793 556.704 137.971C556.071 139.898 554.314 144.674 551.434 152.301C549.327 157.901 548.237 161.668 548.164 163.601C547.874 171.071 551.704 173.781 557.294 177.101C557.386 177.155 557.462 177.234 557.514 177.328C557.566 177.422 557.592 177.528 557.589 177.635C557.586 177.742 557.554 177.846 557.497 177.937C557.44 178.028 557.359 178.102 557.264 178.151C556.884 178.338 556.364 178.434 555.704 178.441C548.004 178.468 539.047 178.471 528.834 178.451C528.407 178.451 528.167 178.424 528.114 178.371C527.988 178.249 527.893 178.1 527.836 177.934C527.78 177.769 527.764 177.592 527.789 177.419C527.814 177.246 527.881 177.082 527.983 176.939C528.084 176.797 528.218 176.681 528.374 176.601C531.621 174.921 534.491 172.651 536.984 169.791C538.237 168.351 539.844 165.108 541.804 160.061C552.057 133.741 563.751 104.381 576.884 71.9809C577.924 69.4209 578.544 67.3909 577.504 64.7909C576.317 61.8509 574.157 59.4609 571.024 57.6209C570.644 57.4009 570.484 57.1076 570.544 56.7409C570.569 56.6016 570.619 56.4683 570.693 56.3491C570.766 56.2299 570.861 56.1274 570.972 56.0478C571.082 55.9683 571.206 55.9133 571.335 55.8863C571.465 55.8593 571.597 55.8609 571.724 55.8909C572.911 56.1776 574.291 56.3709 575.864 56.4709C576.071 56.4843 582.957 56.4976 596.524 56.5109C596.741 56.511 596.953 56.577 597.131 56.7002C597.31 56.8235 597.447 56.9981 597.524 57.2009C612.484 97.9542 625.614 132.768 636.914 161.641C639.801 169.028 644.774 174.278 651.834 177.391C651.95 177.446 652.046 177.538 652.104 177.654C652.162 177.769 652.18 177.901 652.154 178.026C652.128 178.152 652.061 178.265 651.963 178.345C651.865 178.426 651.742 178.47 651.614 178.471ZM559.844 130.671C559.824 130.719 559.817 130.771 559.822 130.823C559.827 130.874 559.845 130.924 559.873 130.967C559.902 131.01 559.941 131.046 559.986 131.071C560.031 131.096 560.082 131.11 560.134 131.111L603.004 131.561C603.055 131.561 603.106 131.548 603.152 131.525C603.197 131.501 603.236 131.466 603.266 131.424C603.295 131.382 603.314 131.333 603.321 131.282C603.327 131.231 603.322 131.179 603.304 131.131L582.444 76.3709C582.422 76.3092 582.382 76.2558 582.329 76.2176C582.276 76.1794 582.213 76.1583 582.147 76.1572C582.082 76.1561 582.018 76.175 581.964 76.2115C581.909 76.2479 581.868 76.3001 581.844 76.3609L559.844 130.671Z" fill="#CCA244"/>
<path d="M705.525 158.154C705.57 158.191 705.623 158.217 705.68 158.23C705.737 158.242 705.796 158.241 705.853 158.227C705.909 158.212 705.962 158.184 706.006 158.145C706.049 158.107 706.083 158.058 706.105 158.004C713.165 139.174 719.785 121.824 728.275 101.194C731.415 93.5736 734.395 85.8736 737.215 78.0936C740.265 69.7136 739.625 61.7036 730.975 57.4636C730.829 57.389 730.714 57.2672 730.647 57.1182C730.58 56.9693 730.566 56.802 730.607 56.6439C730.647 56.4857 730.741 56.3462 730.871 56.248C731.001 56.1498 731.161 56.0989 731.325 56.1036C739.518 56.5503 748.005 56.4803 756.785 55.8936C756.975 55.8804 757.163 55.9112 757.335 55.9836L758.155 56.3136C758.312 56.3785 758.447 56.4888 758.541 56.6303C758.636 56.7718 758.687 56.9383 758.687 57.1086C758.687 57.2789 758.636 57.4454 758.541 57.5869C758.447 57.7284 758.312 57.8387 758.155 57.9036C752.165 60.3236 748.815 65.2336 746.365 71.4736C739.551 88.847 732.695 106.194 725.795 123.514C718.635 141.484 712.005 159.864 704.195 177.674C704.09 177.909 703.92 178.11 703.705 178.252C703.491 178.393 703.241 178.47 702.985 178.474L693.405 178.594C692.962 178.596 692.528 178.467 692.159 178.223C691.791 177.979 691.504 177.631 691.335 177.224C689.475 172.757 686.488 165.394 682.375 155.134C678.435 145.314 669.705 124.804 656.185 93.6036C652.635 85.3936 648.435 73.6236 643.795 66.4736C641.401 62.7803 638.391 59.7103 634.765 57.2636C634.657 57.1888 634.577 57.0815 634.536 56.9576C634.494 56.8337 634.493 56.6996 634.534 56.5753C634.574 56.451 634.653 56.3429 634.76 56.267C634.866 56.191 634.994 56.1513 635.125 56.1536C647.818 56.6136 659.978 56.597 671.605 56.1036C671.734 56.1002 671.861 56.133 671.973 56.1984C672.084 56.2638 672.175 56.3592 672.235 56.4736C672.535 57.0403 672.335 57.4869 671.635 57.8136C664.815 61.0336 666.365 66.1036 669.095 72.2436C672.848 80.6969 678.425 93.6836 685.825 111.204C687.505 115.174 688.725 118.784 690.335 122.434C696.341 136.04 701.321 147.824 705.275 157.784C705.341 157.944 705.425 158.067 705.525 158.154Z" fill="#CCA244"/>
<path d="M924.961 178.171C924.641 178.351 924.241 178.447 923.761 178.461C921.115 178.507 908.761 178.481 886.701 178.381C885.841 178.374 885.368 178.361 885.281 178.341C885.073 178.277 884.89 178.147 884.761 177.972C884.631 177.796 884.561 177.584 884.561 177.366C884.561 177.148 884.631 176.935 884.761 176.76C884.89 176.584 885.073 176.455 885.281 176.391C891.401 174.464 894.495 170.107 894.561 163.321C894.775 140.221 894.788 110.731 894.601 74.8508C894.575 70.0041 894.078 66.6041 893.111 64.6508C891.651 61.6908 889.008 59.2775 885.181 57.4108C884.761 57.2041 884.545 56.9008 884.531 56.5008C884.525 56.0541 884.715 55.8608 885.101 55.9208C887.228 56.2341 889.098 56.3908 890.711 56.3908C922.091 56.3308 940.255 56.2808 945.201 56.2408C958.841 56.1308 973.491 59.3708 982.251 69.4908C985.165 72.8574 987.268 77.3374 988.561 82.9308C993.111 102.671 981.911 121.031 961.791 125.071C961.668 125.095 961.553 125.149 961.454 125.227C961.356 125.305 961.278 125.405 961.226 125.52C961.174 125.634 961.15 125.759 961.156 125.884C961.163 126.01 961.199 126.132 961.261 126.241C969.308 140.327 977.068 152.857 984.541 163.831C988.635 169.837 994.111 174.131 1000.97 176.711C1001.37 176.864 1001.61 177.171 1001.68 177.631C1001.7 177.731 1001.69 177.834 1001.66 177.931C1001.63 178.029 1001.58 178.119 1001.52 178.196C1001.45 178.272 1001.37 178.334 1001.28 178.376C1001.19 178.419 1001.09 178.441 1000.99 178.441H971.661C971.242 178.441 970.829 178.33 970.464 178.12C970.099 177.909 969.794 177.606 969.581 177.241L941.621 128.811C941.402 128.431 941.087 128.115 940.708 127.896C940.329 127.676 939.899 127.561 939.461 127.561H915.851C915.593 127.561 915.345 127.663 915.162 127.844C914.978 128.026 914.874 128.273 914.871 128.531C914.858 131.104 914.828 141.337 914.781 159.231C914.771 162.711 915.101 167.731 916.391 170.151C918.171 173.511 921.341 175.221 924.911 176.871C925.034 176.927 925.138 177.016 925.213 177.128C925.287 177.24 925.33 177.371 925.335 177.505C925.34 177.64 925.308 177.773 925.242 177.891C925.176 178.008 925.079 178.105 924.961 178.171ZM914.421 61.9308L914.621 121.551C914.624 121.605 914.647 121.656 914.686 121.693C914.725 121.73 914.777 121.751 914.831 121.751L938.561 121.671C942.623 121.658 946.642 120.914 950.39 119.481C954.137 118.049 957.54 115.956 960.403 113.322C963.266 110.689 965.533 107.566 967.075 104.132C968.618 100.699 969.405 97.0215 969.391 93.3108L969.371 89.7708C969.345 82.2801 966.063 75.1077 960.248 69.8307C954.433 64.5537 946.56 61.6042 938.361 61.6308L914.631 61.7208C914.604 61.7208 914.576 61.7262 914.551 61.7368C914.526 61.7473 914.502 61.7628 914.483 61.7823C914.463 61.8018 914.448 61.825 914.437 61.8504C914.427 61.8759 914.421 61.9032 914.421 61.9308Z" fill="#CCA244"/>
<path d="M1106.59 79.3734C1105.93 78.7067 1104.7 77.1768 1102.89 74.7834C1095.14 64.4834 1087.01 61.8134 1074.06 61.6234C1066.6 61.5101 1057.9 61.4835 1047.97 61.5435C1047.83 61.5435 1047.69 61.6003 1047.59 61.7016C1047.49 61.8029 1047.43 61.9402 1047.43 62.0834V112.453C1047.43 112.57 1047.48 112.682 1047.56 112.765C1047.64 112.847 1047.75 112.893 1047.87 112.893C1061.56 112.907 1069.73 112.837 1072.39 112.683C1081.58 112.153 1086.88 105.933 1090.51 98.3334C1090.59 98.1653 1090.71 98.0172 1090.86 97.9016C1091 97.786 1091.17 97.7064 1091.35 97.6692C1091.53 97.632 1091.71 97.6384 1091.88 97.6878C1092.05 97.7373 1092.21 97.8283 1092.33 97.9534C1092.52 98.1401 1092.61 98.5934 1092.61 99.3134C1092.56 109.52 1092.57 120.837 1092.64 133.263C1092.64 133.387 1092.6 133.503 1092.53 133.593C1092.44 133.713 1092.38 133.777 1092.37 133.783C1092.24 133.889 1092.08 133.963 1091.92 134.002C1091.75 134.041 1091.58 134.044 1091.41 134.009C1091.25 133.975 1091.09 133.905 1090.95 133.804C1090.82 133.703 1090.7 133.573 1090.62 133.423C1086.47 125.833 1081.57 119.263 1072.08 118.933C1065.93 118.72 1058.02 118.627 1048.35 118.653C1048.18 118.656 1048.01 118.728 1047.88 118.853C1047.76 118.979 1047.69 119.147 1047.69 119.323L1048.33 171.523C1048.33 171.756 1048.43 171.978 1048.59 172.143C1048.76 172.307 1048.98 172.401 1049.21 172.403C1054.64 172.49 1061.58 172.517 1070.01 172.483C1071.89 172.477 1074.34 172.28 1077.36 171.893C1083.15 171.163 1089.4 170.923 1094.75 169.143C1104.45 165.903 1108.88 158.203 1113.68 149.123C1113.76 148.97 1113.93 148.79 1114.2 148.583C1114.93 148.023 1115.53 148.093 1116.02 148.793C1116.13 148.943 1116.18 149.122 1116.17 149.303L1114.87 177.493C1114.86 177.752 1114.75 177.997 1114.56 178.175C1114.38 178.354 1114.13 178.454 1113.87 178.453C1053.04 178.467 1022.24 178.45 1021.45 178.403C1019.92 178.323 1019.12 178.273 1019.06 178.253C1018.89 178.208 1018.73 178.108 1018.62 177.967C1018.5 177.827 1018.44 177.654 1018.43 177.473C1018.42 177.292 1018.47 177.113 1018.57 176.962C1018.67 176.811 1018.81 176.696 1018.98 176.633C1026.9 173.783 1027.54 167.793 1027.67 160.323C1028.24 126.33 1028.18 96.5101 1027.49 70.8635C1027.34 64.9901 1024.67 60.7201 1019.49 58.0534C1019.06 57.8267 1018.72 57.4968 1018.49 57.0634C1018.45 56.981 1018.43 56.8889 1018.43 56.796C1018.43 56.703 1018.46 56.6125 1018.51 56.533C1018.56 56.4536 1018.62 56.3879 1018.71 56.3425C1018.79 56.297 1018.88 56.2732 1018.97 56.2734H1106.23C1106.59 56.2734 1106.94 56.4172 1107.2 56.6735C1107.46 56.9299 1107.61 57.2783 1107.61 57.6434L1107.87 78.8434C1107.87 78.9917 1107.83 79.1366 1107.74 79.2598C1107.66 79.383 1107.55 79.479 1107.41 79.5357C1107.27 79.5924 1107.12 79.6073 1106.98 79.5784C1106.83 79.5495 1106.7 79.4782 1106.59 79.3734Z" fill="#CCA244"/>
<path d="M1233.01 149.121C1233.23 149.768 1233.26 150.768 1233.1 152.121C1232.13 160.628 1231.65 169.035 1231.66 177.341C1231.66 177.572 1231.58 177.795 1231.42 177.967C1231.27 178.138 1231.06 178.247 1230.83 178.271C1229.59 178.405 1228.14 178.471 1226.46 178.471C1177.5 178.458 1147.68 178.461 1136.99 178.481C1136.34 178.481 1135.75 178.408 1135.23 178.261C1135.06 178.212 1134.91 178.112 1134.81 177.974C1134.7 177.837 1134.63 177.669 1134.62 177.493C1134.61 177.318 1134.66 177.143 1134.75 176.994C1134.84 176.846 1134.98 176.729 1135.14 176.661C1143.7 173.181 1144.39 165.401 1144.45 157.251C1144.63 129.085 1144.6 100.778 1144.36 72.3313C1144.31 65.7579 1141.47 60.8179 1135.84 57.5113C1135.72 57.4379 1135.62 57.3249 1135.56 57.19C1135.51 57.0551 1135.5 56.9058 1135.54 56.7654C1135.58 56.625 1135.66 56.5014 1135.78 56.4138C1135.9 56.3262 1136.04 56.2797 1136.18 56.2813H1224.83C1225.05 56.2812 1225.26 56.3663 1225.42 56.519C1225.58 56.6717 1225.67 56.8803 1225.68 57.1013C1226.05 66.6013 1226.17 73.6146 1226.05 78.1413C1226.04 78.6146 1225.99 78.958 1225.89 79.1713C1225.82 79.3271 1225.71 79.4618 1225.57 79.5616C1225.44 79.6614 1225.27 79.7226 1225.1 79.7389C1224.94 79.7552 1224.77 79.7261 1224.61 79.6544C1224.46 79.5827 1224.33 79.4712 1224.23 79.3313C1218.88 71.4713 1213.22 64.8313 1203.42 62.9313C1199.65 62.1979 1196.33 61.7879 1193.45 61.7013C1190.29 61.6013 1180.74 61.5346 1164.78 61.5013C1164.68 61.4999 1164.58 61.5194 1164.48 61.5586C1164.39 61.5979 1164.3 61.656 1164.23 61.7296C1164.16 61.8032 1164.1 61.8909 1164.06 61.9873C1164.02 62.0838 1164 62.1872 1164 62.2913L1164.61 112.381C1164.62 112.504 1164.67 112.621 1164.75 112.707C1164.84 112.793 1164.95 112.841 1165.07 112.841C1175.16 112.821 1182.71 112.808 1187.71 112.801C1197.92 112.791 1203.66 106.751 1207.83 98.3313C1207.91 98.1847 1208.02 98.0629 1208.16 97.9809C1208.31 97.8989 1208.47 97.8602 1208.63 97.8698C1208.8 97.8794 1208.95 97.9367 1209.09 98.0347C1209.22 98.1327 1209.32 98.2671 1209.37 98.4213C1209.5 98.7813 1209.57 99.258 1209.57 99.8513C1209.61 116.465 1209.58 127.388 1209.48 132.621C1209.48 132.921 1209.34 133.285 1209.07 133.711C1209 133.832 1208.89 133.932 1208.76 134.001C1208.64 134.07 1208.5 134.106 1208.35 134.106C1208.21 134.106 1208.07 134.07 1207.95 134.001C1207.82 133.932 1207.72 133.832 1207.64 133.711C1204.11 128.091 1201.79 121.941 1194.45 119.831C1192.07 119.151 1188.32 118.805 1183.2 118.791C1178.96 118.778 1172.97 118.748 1165.23 118.701C1165.13 118.701 1165.02 118.722 1164.93 118.762C1164.83 118.803 1164.74 118.862 1164.67 118.936C1164.6 119.011 1164.54 119.099 1164.5 119.196C1164.46 119.293 1164.44 119.397 1164.44 119.501L1165.08 171.651C1165.09 171.827 1165.16 171.996 1165.28 172.123C1165.41 172.249 1165.57 172.324 1165.75 172.331C1177.93 172.805 1189.74 172.405 1201.2 171.131C1211.33 170.011 1219.7 166.851 1225.13 157.781C1227.69 153.488 1229.4 150.528 1230.25 148.901C1230.39 148.64 1230.6 148.425 1230.86 148.282C1231.12 148.14 1231.42 148.077 1231.71 148.1C1232.01 148.123 1232.29 148.233 1232.52 148.414C1232.75 148.596 1232.92 148.842 1233.01 149.121Z" fill="#CCA244"/>
<path d="M296.714 178.363C286.914 178.59 277.814 178.606 269.414 178.413C268.067 178.38 267.057 178.269 266.384 178.083C266.276 178.05 266.182 177.985 266.113 177.896C266.044 177.807 266.005 177.699 266 177.587C265.996 177.475 266.027 177.364 266.088 177.27C266.15 177.176 266.239 177.104 266.344 177.063C273.544 174.413 277.434 169.103 280.094 161.933C285.194 148.193 297.004 118.413 315.524 72.5928C316.864 69.2662 316.557 65.9728 314.604 62.7128C312.524 59.2528 310.314 58.9228 307.724 57.0328C307.663 56.9881 307.618 56.9252 307.594 56.8533C307.571 56.7814 307.571 56.704 307.595 56.6321C307.618 56.5602 307.663 56.4974 307.724 56.4527C307.785 56.408 307.858 56.3835 307.934 56.3828H334.284C334.73 56.3822 335.165 56.519 335.532 56.7747C335.899 57.0304 336.178 57.3927 336.334 57.8128C344.574 80.4228 351.444 99.6528 358.804 118.353C365.104 134.366 369.87 146.686 373.104 155.313C376.804 165.173 380.624 172.513 389.594 176.853C389.807 176.96 389.924 177.176 389.944 177.503C389.949 177.629 389.93 177.755 389.887 177.873C389.845 177.991 389.779 178.099 389.695 178.19C389.611 178.282 389.51 178.355 389.398 178.405C389.287 178.455 389.166 178.482 389.044 178.483C387.13 178.49 375.537 178.483 354.264 178.463C351.884 178.456 350.037 178.38 348.724 178.233C348.596 178.22 348.475 178.167 348.379 178.082C348.283 177.996 348.217 177.883 348.188 177.756C348.159 177.63 348.171 177.498 348.22 177.377C348.269 177.256 348.355 177.154 348.464 177.083C352.254 174.693 355.264 172.073 355.014 167.003C354.96 166.003 354.13 163.419 352.524 159.253C350.957 155.193 348.264 148.169 344.444 138.183C344.347 137.933 344.177 137.717 343.955 137.566C343.734 137.414 343.472 137.333 343.204 137.333H296.994C296.781 137.333 296.573 137.4 296.399 137.523C296.225 137.647 296.094 137.822 296.024 138.023C294.644 141.989 292.334 147.963 289.094 155.943C287.42 160.049 286.674 163.179 286.854 165.333C287.14 168.759 288.63 171.616 291.324 173.903C293.014 175.343 295.314 176.213 297.004 177.423C297.091 177.487 297.157 177.576 297.191 177.679C297.225 177.782 297.226 177.893 297.194 177.996C297.162 178.1 297.099 178.191 297.013 178.257C296.927 178.322 296.822 178.359 296.714 178.363ZM321.404 76.5028C321.379 76.4374 321.335 76.381 321.278 76.3409C321.22 76.3007 321.152 76.2787 321.082 76.2777C321.012 76.2766 320.944 76.2965 320.885 76.3348C320.826 76.3732 320.781 76.4282 320.754 76.4928L298.704 130.833C298.683 130.886 298.675 130.943 298.681 130.999C298.686 131.056 298.706 131.11 298.738 131.157C298.769 131.204 298.812 131.243 298.861 131.27C298.911 131.297 298.967 131.312 299.024 131.313H341.334C341.389 131.311 341.444 131.297 341.493 131.27C341.541 131.244 341.583 131.206 341.614 131.16C341.646 131.114 341.666 131.061 341.672 131.006C341.679 130.951 341.673 130.895 341.654 130.843L321.404 76.5028Z" fill="#CCA244"/>
<path d="M500.315 145.153C500.363 145.214 500.429 145.258 500.504 145.279C500.579 145.301 500.658 145.298 500.731 145.271C500.804 145.245 500.867 145.196 500.911 145.131C500.954 145.067 500.977 144.991 500.975 144.913C501.035 118.543 501.615 95.0731 500.185 70.8531C499.865 65.4064 497.381 61.4764 492.735 59.063C492.608 58.9964 491.398 58.4664 489.105 57.4731C489.013 57.4334 488.933 57.3713 488.872 57.2923C488.811 57.2134 488.771 57.1201 488.755 57.0208C488.739 56.9216 488.748 56.8195 488.781 56.7239C488.814 56.6282 488.87 56.5421 488.945 56.4731C489.238 56.2064 489.575 56.0764 489.955 56.0831C500.628 56.2831 509.621 56.2831 516.935 56.0831C517.275 56.0697 517.501 56.1864 517.615 56.433C517.678 56.5683 517.713 56.7154 517.716 56.8645C517.719 57.0136 517.691 57.1612 517.633 57.2975C517.575 57.4339 517.49 57.5557 517.381 57.655C517.273 57.7542 517.144 57.8285 517.005 57.873C511.431 59.6197 508.255 63.5264 507.475 69.5931C507.101 72.5464 506.901 76.6264 506.875 81.8331C506.828 92.8131 506.771 109.703 506.705 132.503C506.678 141.35 506.728 148.073 506.855 152.673C507.185 164.513 507.765 171.673 507.025 177.443C506.998 177.639 506.912 177.822 506.778 177.967C506.643 178.112 506.468 178.212 506.275 178.253C503.415 178.873 501.835 178.653 499.905 176.103C496.645 171.79 491.488 165.516 484.435 157.283C480.121 152.256 474.925 146.033 468.845 138.613C452.551 118.726 436.668 99.4297 421.195 80.7231C421.141 80.658 421.069 80.6115 420.988 80.5898C420.907 80.5681 420.821 80.5723 420.742 80.6017C420.662 80.6311 420.593 80.6843 420.544 80.7543C420.494 80.8243 420.466 80.9076 420.465 80.993C420.451 91.7597 420.461 118.206 420.495 160.333C420.495 167.333 423.315 174.463 430.735 176.743C431.348 176.93 431.735 177.223 431.895 177.623C431.93 177.716 431.943 177.815 431.932 177.914C431.92 178.012 431.885 178.107 431.829 178.188C431.772 178.27 431.697 178.337 431.609 178.383C431.522 178.429 431.424 178.453 431.325 178.453H404.195C404.086 178.452 403.98 178.421 403.887 178.364C403.795 178.306 403.721 178.224 403.672 178.127C403.623 178.03 403.602 177.921 403.612 177.813C403.621 177.704 403.66 177.601 403.725 177.513C403.958 177.206 404.301 176.95 404.755 176.743C414.805 172.163 414.315 162.503 414.325 152.583C414.351 125.883 414.308 98.9664 414.195 71.8331C414.165 65.5631 408.845 60.023 403.425 57.573C403.299 57.5133 403.196 57.4129 403.135 57.2879C403.073 57.1629 403.055 57.0207 403.084 56.8843C403.113 56.7479 403.187 56.6253 403.294 56.5361C403.401 56.447 403.535 56.3966 403.675 56.3931L426.015 56.303C426.074 56.303 426.135 56.3132 426.195 56.3331C427.348 56.7131 428.445 57.543 429.485 58.823C458.505 94.423 476.485 116.553 500.315 145.153Z" fill="#CCA244"/>
<path d="M744.423 178.033C744.36 178.006 744.306 177.962 744.267 177.906C744.227 177.85 744.204 177.784 744.2 177.715C744.196 177.647 744.211 177.579 744.243 177.518C744.276 177.458 744.324 177.408 744.383 177.373L750.793 173.473C750.84 173.447 750.883 173.416 750.923 173.383C753.563 170.91 755.587 167.906 756.993 164.373C769.353 133.233 781.033 105.053 795.393 68.4832C795.625 67.8919 795.621 67.2337 795.383 66.6431C793.937 63.0565 791.417 60.0598 787.823 57.6531C787.297 57.2998 787.217 56.8665 787.583 56.3532C787.614 56.3104 787.656 56.276 787.704 56.2532C787.753 56.2305 787.808 56.2202 787.863 56.2232L813.193 56.5131C813.529 56.5184 813.855 56.6253 814.13 56.8197C814.405 57.0141 814.615 57.2871 814.733 57.6032C825.607 87.2432 832.337 105.336 834.923 111.883C842.843 131.943 849.073 147.793 853.613 159.433C856.893 167.833 860.023 173.243 867.393 177.113C867.537 177.185 867.652 177.303 867.718 177.449C867.785 177.595 867.8 177.759 867.76 177.915C867.721 178.072 867.63 178.211 867.501 178.31C867.373 178.41 867.215 178.464 867.053 178.463H826.423C826.253 178.463 826.086 178.407 825.95 178.304C825.814 178.2 825.716 178.055 825.671 177.891C825.625 177.726 825.635 177.551 825.699 177.392C825.763 177.234 825.877 177.101 826.023 177.013C831.443 173.803 834.813 170.633 832.623 163.663C829.863 154.863 826.163 146.163 823.133 137.933C823.075 137.77 822.967 137.628 822.822 137.528C822.677 137.428 822.503 137.374 822.323 137.373H775.803C775.562 137.373 775.325 137.442 775.121 137.574C774.917 137.705 774.755 137.892 774.653 138.113C772.007 143.907 769.443 150.066 766.963 156.593C763.953 164.553 764.413 172.123 772.993 176.083C773.727 176.423 774.24 176.93 774.533 177.603C774.571 177.691 774.586 177.787 774.577 177.882C774.569 177.977 774.536 178.069 774.483 178.149C774.429 178.229 774.357 178.295 774.271 178.341C774.186 178.387 774.09 178.412 773.993 178.413C757.447 178.453 748.247 178.463 746.393 178.443C745.667 178.436 745.01 178.3 744.423 178.033ZM800.193 76.6831C800.158 76.5894 800.094 76.5087 800.012 76.4514C799.93 76.3941 799.832 76.363 799.732 76.3619C799.631 76.3608 799.533 76.3899 799.45 76.4454C799.366 76.5009 799.301 76.5803 799.263 76.6732L777.373 130.613C777.342 130.689 777.33 130.771 777.338 130.853C777.346 130.934 777.374 131.012 777.42 131.081C777.465 131.149 777.527 131.205 777.599 131.243C777.671 131.282 777.751 131.303 777.833 131.303H819.823C819.904 131.303 819.983 131.284 820.054 131.247C820.125 131.21 820.186 131.156 820.232 131.09C820.279 131.025 820.308 130.949 820.319 130.869C820.329 130.79 820.321 130.709 820.293 130.633L800.193 76.6831Z" fill="#CCA244"/>
</svg>
