<svg width="970" height="488" viewBox="0 0 970 488" fill="none" xmlns="http://www.w3.org/2000/svg">
<path d="M386.61 383.471C386.738 383.47 386.861 383.426 386.959 383.345C387.057 383.265 387.125 383.152 387.15 383.026C387.176 382.901 387.158 382.769 387.1 382.654C387.042 382.538 386.947 382.446 386.83 382.391C379.77 379.278 374.797 374.028 371.91 366.641C360.61 337.768 347.48 302.954 332.52 262.201C332.443 261.998 332.306 261.823 332.127 261.7C331.949 261.577 331.737 261.511 331.52 261.511C317.953 261.498 311.067 261.484 310.86 261.471C309.287 261.371 307.907 261.178 306.72 260.891C306.593 260.861 306.461 260.859 306.331 260.886C306.202 260.913 306.078 260.968 305.968 261.048C305.857 261.127 305.762 261.23 305.689 261.349C305.615 261.468 305.565 261.602 305.54 261.741C305.48 262.108 305.64 262.401 306.02 262.621C309.153 264.461 311.313 266.851 312.5 269.791C313.54 272.391 312.92 274.421 311.88 276.981C298.747 309.381 287.053 338.741 276.8 365.061C274.84 370.108 273.233 373.351 271.98 374.791C269.487 377.651 266.617 379.921 263.37 381.601C263.215 381.681 263.08 381.797 262.979 381.939C262.877 382.082 262.811 382.246 262.785 382.419C262.76 382.592 262.776 382.769 262.832 382.934C262.889 383.1 262.984 383.249 263.11 383.371C263.163 383.424 263.403 383.451 263.83 383.451C274.043 383.471 283 383.468 290.7 383.441C291.36 383.434 291.88 383.338 292.26 383.151C292.355 383.102 292.436 383.028 292.493 382.937C292.55 382.846 292.582 382.742 292.585 382.635C292.588 382.528 292.562 382.422 292.51 382.328C292.458 382.234 292.382 382.155 292.29 382.101C286.7 378.781 282.87 376.071 283.16 368.601C283.233 366.668 284.323 362.901 286.43 357.301C289.31 349.674 291.067 344.898 291.7 342.971C291.759 342.793 291.872 342.638 292.023 342.529C292.174 342.419 292.355 342.36 292.54 342.361H338.79C339.29 342.361 339.778 342.512 340.191 342.796C340.603 343.08 340.92 343.483 341.1 343.951C341.587 345.211 344.853 353.931 350.9 370.111C351.687 372.224 351.443 374.841 350.17 377.961C350.111 378.111 350.011 378.243 349.88 378.341L344.55 382.271C344.479 382.322 344.424 382.391 344.388 382.471C344.353 382.551 344.34 382.639 344.35 382.725C344.361 382.812 344.394 382.894 344.446 382.964C344.499 383.033 344.569 383.088 344.65 383.121C345.03 383.288 345.38 383.371 345.7 383.371C358.92 383.511 372.557 383.544 386.61 383.471Z" stroke="#CCA244" stroke-width="2"/>
<path d="M440.521 363.15C440.421 363.063 440.337 362.94 440.271 362.78C436.317 352.82 431.337 341.036 425.331 327.43C423.721 323.78 422.501 320.17 420.821 316.2C413.421 298.68 407.844 285.693 404.091 277.24C401.361 271.1 399.811 266.03 406.631 262.81C407.331 262.483 407.531 262.036 407.231 261.47C407.171 261.355 407.08 261.26 406.969 261.194C406.857 261.129 406.73 261.096 406.601 261.1C394.974 261.593 382.814 261.61 370.121 261.15C369.99 261.147 369.862 261.187 369.756 261.263C369.649 261.339 369.57 261.447 369.53 261.571C369.489 261.696 369.49 261.83 369.532 261.954C369.573 262.078 369.654 262.185 369.761 262.26C373.387 264.706 376.397 267.776 378.791 271.47C383.431 278.62 387.631 290.39 391.181 298.6C404.701 329.8 413.431 350.31 417.371 360.13C421.484 370.39 424.471 377.753 426.331 382.22C426.5 382.627 426.787 382.975 427.155 383.219C427.524 383.463 427.958 383.592 428.401 383.59L437.981 383.47C438.237 383.467 438.487 383.389 438.701 383.248C438.916 383.106 439.086 382.905 439.191 382.67C447.001 364.86 453.631 346.48 460.791 328.51C467.691 311.19 474.547 293.843 481.361 276.47C483.811 270.23 487.161 265.32 493.151 262.9C493.308 262.835 493.443 262.725 493.537 262.583C493.632 262.441 493.683 262.275 493.683 262.105C493.683 261.934 493.632 261.768 493.537 261.626C493.443 261.485 493.308 261.375 493.151 261.31L492.331 260.98C492.16 260.907 491.971 260.876 491.781 260.89C483.001 261.476 474.514 261.546 466.321 261.1C466.157 261.095 465.998 261.146 465.867 261.244C465.737 261.342 465.643 261.482 465.603 261.64C465.562 261.798 465.576 261.965 465.643 262.114C465.71 262.263 465.826 262.385 465.971 262.46C474.621 266.7 475.261 274.71 472.211 283.09C469.391 290.87 466.411 298.57 463.271 306.19C454.781 326.82 448.161 344.17 441.101 363C441.079 363.054 441.045 363.103 441.002 363.141C440.958 363.18 440.906 363.208 440.849 363.223C440.792 363.237 440.733 363.238 440.676 363.226C440.619 363.213 440.566 363.187 440.521 363.15Z" stroke="#CCA244" stroke-width="2"/>
<path d="M659.961 383.171C660.079 383.105 660.176 383.008 660.242 382.891C660.308 382.773 660.34 382.64 660.335 382.505C660.33 382.371 660.287 382.24 660.213 382.128C660.138 382.016 660.034 381.927 659.911 381.871C656.341 380.221 653.171 378.511 651.391 375.151C650.101 372.731 649.771 367.711 649.781 364.231C649.828 346.337 649.858 336.104 649.871 333.531C649.874 333.273 649.978 333.026 650.162 332.844C650.345 332.663 650.593 332.561 650.851 332.561H674.461C674.899 332.561 675.329 332.676 675.708 332.896C676.087 333.115 676.402 333.431 676.621 333.811L704.581 382.241C704.794 382.606 705.099 382.909 705.464 383.12C705.829 383.33 706.242 383.441 706.661 383.441H735.991C736.092 383.441 736.19 383.419 736.281 383.376C736.372 383.334 736.453 383.272 736.519 383.196C736.584 383.119 736.633 383.029 736.661 382.931C736.689 382.834 736.696 382.731 736.681 382.631C736.608 382.171 736.371 381.864 735.971 381.711C729.111 379.131 723.635 374.837 719.541 368.831C712.068 357.857 704.308 345.327 696.261 331.241C696.199 331.132 696.163 331.01 696.156 330.884C696.15 330.759 696.174 330.634 696.226 330.52C696.278 330.405 696.356 330.305 696.454 330.227C696.553 330.149 696.668 330.095 696.791 330.071C716.911 326.031 728.111 307.671 723.561 287.931C722.268 282.337 720.165 277.857 717.251 274.491C708.491 264.371 693.841 261.131 680.201 261.241C675.255 261.281 657.091 261.331 625.711 261.391C624.098 261.391 622.228 261.234 620.101 260.921C619.715 260.861 619.525 261.054 619.531 261.501C619.545 261.901 619.761 262.204 620.181 262.411C624.008 264.277 626.651 266.691 628.111 269.651C629.078 271.604 629.575 275.004 629.601 279.851C629.788 315.731 629.775 345.221 629.561 368.321C629.495 375.107 626.401 379.464 620.281 381.391C620.073 381.455 619.89 381.584 619.761 381.76C619.631 381.935 619.561 382.148 619.561 382.366C619.561 382.584 619.631 382.796 619.761 382.972C619.89 383.147 620.073 383.277 620.281 383.341C620.368 383.361 620.841 383.374 621.701 383.381C643.761 383.481 656.115 383.507 658.761 383.461C659.241 383.447 659.641 383.351 659.961 383.171Z" stroke="#CCA244" stroke-width="2"/>
<path d="M841.592 284.37C841.696 284.474 841.83 284.546 841.975 284.575C842.121 284.603 842.271 284.589 842.408 284.532C842.545 284.475 842.663 284.379 842.745 284.256C842.827 284.133 842.871 283.988 842.872 283.84L842.612 262.64C842.606 262.274 842.459 261.926 842.2 261.67C841.942 261.413 841.594 261.27 841.232 261.27H753.972C753.879 261.269 753.787 261.293 753.706 261.339C753.625 261.384 753.557 261.45 753.509 261.529C753.46 261.609 753.433 261.699 753.43 261.792C753.427 261.885 753.448 261.977 753.492 262.06C753.725 262.493 754.058 262.823 754.492 263.05C759.672 265.716 762.338 269.986 762.492 275.86C763.185 301.506 763.245 331.326 762.672 365.32C762.542 372.79 761.902 378.78 753.982 381.63C753.812 381.692 753.666 381.807 753.567 381.958C753.467 382.109 753.418 382.288 753.427 382.469C753.436 382.65 753.502 382.823 753.616 382.963C753.73 383.104 753.886 383.204 754.062 383.25C754.122 383.27 754.918 383.32 756.452 383.4C757.238 383.446 788.045 383.463 848.872 383.45C849.128 383.45 849.375 383.35 849.562 383.171C849.748 382.993 849.859 382.749 849.872 382.49L851.172 354.299C851.178 354.118 851.125 353.939 851.022 353.79C850.535 353.09 849.928 353.02 849.202 353.58C848.935 353.786 848.762 353.966 848.682 354.12C843.882 363.2 839.452 370.9 829.752 374.14C824.402 375.92 818.152 376.16 812.362 376.89C809.342 377.276 806.892 377.473 805.012 377.48C796.578 377.513 789.645 377.486 784.212 377.4C783.979 377.397 783.757 377.303 783.592 377.139C783.428 376.974 783.334 376.752 783.332 376.52L782.692 324.32C782.692 324.144 782.761 323.975 782.884 323.849C783.008 323.724 783.176 323.652 783.352 323.65C793.018 323.623 800.928 323.716 807.082 323.93C816.572 324.26 821.472 330.83 825.622 338.42C825.703 338.569 825.816 338.699 825.953 338.8C826.089 338.901 826.246 338.971 826.413 339.005C826.58 339.04 826.752 339.037 826.917 338.998C827.083 338.959 827.238 338.885 827.372 338.78C827.385 338.773 827.438 338.71 827.532 338.59C827.603 338.499 827.641 338.383 827.642 338.26C827.568 325.833 827.558 314.516 827.612 304.31C827.612 303.59 827.518 303.136 827.332 302.95C827.206 302.824 827.051 302.733 826.88 302.684C826.709 302.634 826.526 302.628 826.348 302.665C826.17 302.702 826.001 302.782 825.856 302.898C825.71 303.013 825.592 303.161 825.512 303.33C821.882 310.93 816.582 317.15 807.392 317.68C804.732 317.833 796.558 317.903 782.872 317.89C782.755 317.89 782.643 317.843 782.56 317.761C782.478 317.678 782.432 317.566 782.432 317.45V267.08C782.432 266.936 782.488 266.799 782.59 266.698C782.691 266.596 782.828 266.54 782.972 266.54C792.905 266.48 801.602 266.506 809.062 266.62C822.012 266.81 830.142 269.48 837.892 279.78C839.698 282.173 840.932 283.703 841.592 284.37Z" stroke="#CCA244" stroke-width="2"/>
<path d="M968.013 354.121C967.921 353.842 967.749 353.596 967.517 353.414C967.286 353.233 967.006 353.123 966.712 353.1C966.418 353.077 966.123 353.14 965.863 353.282C965.604 353.425 965.392 353.64 965.253 353.901C964.4 355.528 962.693 358.488 960.133 362.781C954.703 371.851 946.333 375.011 936.203 376.131C924.743 377.405 912.926 377.805 900.753 377.331C900.574 377.324 900.405 377.249 900.281 377.123C900.156 376.996 900.085 376.827 900.083 376.651L899.443 324.501C899.442 324.397 899.461 324.293 899.5 324.196C899.539 324.099 899.597 324.011 899.671 323.936C899.744 323.862 899.832 323.803 899.928 323.762C900.025 323.722 900.128 323.701 900.233 323.701C907.966 323.748 913.956 323.778 918.203 323.791C923.323 323.805 927.073 324.151 929.453 324.831C936.793 326.941 939.113 333.091 942.643 338.711C942.718 338.832 942.822 338.932 942.946 339.001C943.07 339.07 943.21 339.106 943.353 339.106C943.496 339.106 943.637 339.07 943.763 339.001C943.889 338.932 943.995 338.832 944.073 338.711C944.34 338.285 944.476 337.921 944.483 337.621C944.576 332.388 944.606 321.465 944.573 304.851C944.566 304.258 944.5 303.781 944.373 303.421C944.317 303.267 944.217 303.133 944.085 303.035C943.954 302.937 943.796 302.879 943.632 302.87C943.469 302.86 943.306 302.899 943.164 302.981C943.021 303.063 942.907 303.185 942.833 303.331C938.663 311.751 932.923 317.791 922.713 317.801C917.706 317.808 910.16 317.821 900.073 317.841C899.953 317.841 899.837 317.793 899.751 317.707C899.665 317.621 899.616 317.504 899.613 317.381L899.003 267.291C899.002 267.187 899.021 267.084 899.06 266.987C899.098 266.891 899.156 266.803 899.228 266.73C899.301 266.656 899.388 266.598 899.483 266.559C899.578 266.519 899.68 266.5 899.783 266.501C915.736 266.535 925.293 266.601 928.453 266.701C931.326 266.788 934.65 267.198 938.423 267.931C948.223 269.831 953.883 276.471 959.233 284.331C959.328 284.471 959.459 284.583 959.612 284.654C959.766 284.726 959.936 284.755 960.105 284.739C960.274 284.723 960.436 284.661 960.575 284.562C960.713 284.462 960.823 284.327 960.893 284.171C960.986 283.958 961.04 283.615 961.053 283.141C961.173 278.615 961.05 271.601 960.683 262.101C960.673 261.88 960.578 261.672 960.42 261.519C960.262 261.366 960.052 261.281 959.833 261.281H871.183C871.037 261.28 870.895 261.326 870.779 261.414C870.662 261.501 870.578 261.625 870.539 261.765C870.501 261.906 870.509 262.055 870.564 262.19C870.619 262.325 870.717 262.438 870.843 262.511C876.47 265.818 879.31 270.758 879.363 277.331C879.603 305.778 879.633 334.085 879.453 362.251C879.393 370.401 878.703 378.181 870.143 381.661C869.981 381.729 869.844 381.846 869.751 381.994C869.657 382.143 869.613 382.318 869.622 382.493C869.632 382.669 869.696 382.837 869.806 382.974C869.915 383.112 870.064 383.212 870.233 383.261C870.753 383.408 871.34 383.481 871.993 383.481C882.68 383.461 912.503 383.458 961.463 383.471C963.136 383.471 964.593 383.405 965.833 383.271C966.06 383.247 966.271 383.138 966.424 382.967C966.577 382.795 966.662 382.572 966.663 382.341C966.65 374.035 967.13 365.628 968.103 357.121C968.256 355.768 968.226 354.768 968.013 354.121Z" stroke="#CCA244" stroke-width="2"/>
<path d="M31.7138 383.359C31.8221 383.356 31.9266 383.318 32.0128 383.253C32.099 383.187 32.1625 383.096 32.1944 382.992C32.2264 382.889 32.2252 382.778 32.191 382.675C32.1568 382.572 32.0914 382.483 32.0038 382.419C30.3138 381.209 28.0138 380.339 26.3238 378.899C23.6304 376.612 22.1404 373.756 21.8538 370.329C21.6738 368.176 22.4204 365.046 24.0938 360.939C27.3338 352.959 29.6438 346.986 31.0238 343.019C31.0942 342.818 31.2253 342.643 31.399 342.52C31.5728 342.396 31.7806 342.329 31.9938 342.329H78.2038C78.4721 342.329 78.7341 342.41 78.9554 342.562C79.1767 342.714 79.347 342.929 79.4438 343.179C83.2638 353.166 85.9571 360.189 87.5238 364.249C89.1305 368.416 89.9604 370.999 90.0138 371.999C90.2638 377.069 87.2538 379.689 83.4638 382.079C83.3546 382.15 83.2695 382.252 83.2201 382.373C83.1707 382.494 83.1595 382.626 83.188 382.753C83.2165 382.879 83.2834 382.992 83.3794 383.078C83.4753 383.163 83.5957 383.216 83.7238 383.229C85.0371 383.376 86.8838 383.452 89.2638 383.459C110.537 383.479 122.13 383.486 124.044 383.479C124.166 383.478 124.287 383.451 124.398 383.401C124.51 383.351 124.611 383.278 124.695 383.186C124.779 383.095 124.845 382.987 124.887 382.869C124.93 382.751 124.949 382.625 124.944 382.499C124.924 382.172 124.807 381.956 124.594 381.849C115.624 377.509 111.804 370.169 108.104 360.309C104.87 351.682 100.104 339.362 93.8038 323.349C86.4438 304.649 79.5738 285.419 71.3338 262.809C71.1784 262.389 70.8985 262.027 70.532 261.771C70.1654 261.515 69.7298 261.378 69.2838 261.379H42.9338C42.8582 261.38 42.7848 261.404 42.7239 261.449C42.663 261.494 42.6177 261.556 42.5945 261.628C42.5713 261.7 42.5713 261.778 42.5945 261.849C42.6177 261.921 42.6629 261.984 42.7238 262.029C45.3138 263.919 47.5238 264.249 49.6038 267.709C51.5571 270.969 51.8638 274.262 50.5238 277.589C32.0038 323.409 20.1938 353.189 15.0938 366.929C12.4338 374.099 8.54378 379.409 1.34378 382.059C1.23913 382.1 1.14982 382.172 1.08827 382.266C1.02673 382.36 0.996013 382.471 1.00041 382.583C1.00482 382.695 1.04411 382.803 1.11283 382.892C1.18154 382.981 1.27625 383.046 1.38378 383.079C2.05711 383.266 3.06712 383.376 4.41379 383.409C12.8138 383.602 21.9138 383.586 31.7138 383.359Z" stroke="#CCA244" stroke-width="2"/>
<path d="M235.311 350.149C211.481 321.549 193.501 299.419 164.481 263.819C163.441 262.539 162.344 261.709 161.191 261.329C161.131 261.309 161.07 261.299 161.011 261.299L138.671 261.389C138.531 261.393 138.397 261.443 138.29 261.532C138.183 261.621 138.109 261.744 138.08 261.88C138.051 262.017 138.069 262.159 138.131 262.284C138.193 262.409 138.295 262.509 138.421 262.569C143.841 265.019 149.161 270.559 149.191 276.829C149.304 303.962 149.347 330.879 149.321 357.579C149.311 367.499 149.801 377.159 139.751 381.739C139.297 381.946 138.954 382.202 138.721 382.509C138.656 382.597 138.617 382.7 138.608 382.809C138.599 382.917 138.619 383.026 138.668 383.123C138.717 383.22 138.791 383.302 138.883 383.36C138.976 383.417 139.082 383.448 139.191 383.449H166.321C166.42 383.449 166.518 383.425 166.605 383.379C166.693 383.333 166.769 383.266 166.825 383.184C166.881 383.103 166.916 383.009 166.928 382.91C166.939 382.812 166.927 382.712 166.891 382.619C166.731 382.219 166.344 381.926 165.731 381.739C158.311 379.459 155.491 372.329 155.491 365.329C155.457 323.202 155.447 296.756 155.461 285.989C155.463 285.904 155.49 285.82 155.54 285.75C155.589 285.68 155.658 285.627 155.738 285.598C155.817 285.568 155.903 285.564 155.984 285.586C156.065 285.608 156.137 285.654 156.191 285.719C171.664 304.426 187.547 323.723 203.841 343.609C209.921 351.029 215.117 357.252 219.431 362.279C226.484 370.512 231.641 376.786 234.901 381.099C236.831 383.649 238.411 383.869 241.271 383.249C241.464 383.208 241.64 383.108 241.774 382.963C241.908 382.818 241.994 382.635 242.021 382.439C242.761 376.669 242.181 369.509 241.851 357.669C241.724 353.069 241.674 346.346 241.701 337.499C241.767 314.699 241.824 297.809 241.871 286.829C241.897 281.622 242.097 277.542 242.471 274.589C243.251 268.522 246.427 264.616 252.001 262.869C252.14 262.825 252.269 262.75 252.377 262.651C252.486 262.552 252.572 262.43 252.629 262.294C252.687 262.157 252.715 262.01 252.712 261.861C252.709 261.712 252.674 261.564 252.611 261.429C252.497 261.182 252.271 261.066 251.931 261.079C244.617 261.279 235.624 261.279 224.951 261.079C224.571 261.072 224.234 261.202 223.941 261.469C223.867 261.538 223.81 261.624 223.777 261.72C223.744 261.816 223.735 261.918 223.751 262.017C223.767 262.116 223.807 262.209 223.868 262.288C223.929 262.367 224.009 262.43 224.101 262.469C226.394 263.462 227.604 263.992 227.731 264.059C232.377 266.472 234.861 270.403 235.181 275.849C236.611 300.069 236.031 323.539 235.971 349.909C235.973 349.987 235.951 350.063 235.907 350.128C235.863 350.192 235.8 350.241 235.727 350.267C235.654 350.294 235.575 350.297 235.5 350.275C235.425 350.254 235.359 350.21 235.311 350.149Z" stroke="#CCA244" stroke-width="2"/>
<path d="M479.423 383.029C480.01 383.296 480.667 383.433 481.393 383.439C483.247 383.459 492.447 383.449 508.993 383.409C509.09 383.408 509.186 383.383 509.271 383.337C509.357 383.291 509.429 383.225 509.483 383.145C509.536 383.065 509.569 382.973 509.577 382.878C509.586 382.783 509.571 382.687 509.533 382.599C509.24 381.926 508.727 381.419 507.993 381.079C499.413 377.119 498.953 369.549 501.963 361.589C504.443 355.063 507.007 348.903 509.653 343.109C509.755 342.888 509.917 342.701 510.121 342.57C510.325 342.438 510.562 342.369 510.803 342.369H557.323C557.503 342.37 557.677 342.424 557.822 342.524C557.967 342.624 558.075 342.766 558.133 342.929C561.163 351.159 564.863 359.859 567.623 368.659C569.813 375.629 566.443 378.799 561.023 382.009C560.877 382.097 560.763 382.23 560.699 382.388C560.635 382.547 560.625 382.722 560.671 382.887C560.716 383.051 560.814 383.197 560.95 383.3C561.086 383.403 561.253 383.459 561.423 383.459H602.053C602.215 383.46 602.373 383.406 602.501 383.306C602.63 383.207 602.721 383.068 602.76 382.912C602.8 382.755 602.785 382.591 602.718 382.445C602.652 382.3 602.537 382.181 602.393 382.109C595.023 378.239 591.893 372.829 588.613 364.429C584.073 352.789 577.843 336.939 569.923 316.879C567.337 310.333 560.607 292.239 549.733 262.599C549.615 262.283 549.405 262.01 549.13 261.816C548.855 261.621 548.529 261.515 548.193 261.509L522.863 261.219C522.808 261.216 522.753 261.227 522.704 261.249C522.656 261.272 522.614 261.306 522.583 261.349C522.217 261.863 522.297 262.296 522.823 262.649C526.417 265.056 528.937 268.053 530.383 271.639C530.621 272.23 530.625 272.888 530.393 273.479C516.033 310.049 504.353 338.229 491.993 369.369C490.587 372.903 488.563 375.906 485.923 378.379C485.883 378.413 485.84 378.443 485.793 378.469L479.383 382.369C479.324 382.404 479.276 382.454 479.243 382.514C479.211 382.575 479.196 382.643 479.2 382.712C479.204 382.78 479.227 382.846 479.267 382.902C479.306 382.958 479.36 383.002 479.423 383.029Z" stroke="#CCA244" stroke-width="2"/>
<path d="M294.85 474.418C298.11 474.412 301.394 474.395 304.7 474.368C305.066 474.364 305.425 474.473 305.727 474.68C306.029 474.888 306.261 475.184 306.39 475.528L309.65 484.228C309.83 484.707 310.151 485.119 310.571 485.411C310.991 485.702 311.489 485.858 312 485.858L318.08 485.838C318.227 485.838 318.37 485.801 318.499 485.732C318.628 485.663 318.737 485.563 318.819 485.442C318.9 485.32 318.949 485.181 318.964 485.035C318.978 484.89 318.956 484.743 318.9 484.608L299.12 438.068C299.032 437.862 298.888 437.685 298.704 437.556C298.52 437.427 298.304 437.352 298.08 437.338C297 437.272 295.894 437.238 294.76 437.238C293.627 437.238 292.517 437.278 291.43 437.358C291.21 437.375 290.998 437.452 290.818 437.581C290.639 437.71 290.498 437.885 290.41 438.088L270.86 484.728C270.805 484.863 270.783 485.01 270.797 485.155C270.812 485.301 270.861 485.44 270.942 485.562C271.023 485.683 271.133 485.783 271.262 485.852C271.391 485.921 271.534 485.958 271.68 485.958L277.76 485.938C278.273 485.937 278.772 485.78 279.193 485.487C279.613 485.193 279.933 484.779 280.11 484.298L283.32 475.588C283.448 475.244 283.677 474.947 283.978 474.737C284.278 474.528 284.635 474.417 285 474.418C288.314 474.425 291.597 474.425 294.85 474.418Z" stroke="#CCA244" stroke-width="2"/>
<path d="M506.262 474.402C509.516 474.395 512.796 474.385 516.102 474.372C516.466 474.369 516.823 474.479 517.123 474.687C517.423 474.894 517.654 475.189 517.782 475.532L521.022 484.222C521.202 484.7 521.523 485.113 521.942 485.404C522.362 485.695 522.861 485.852 523.372 485.852H529.442C529.588 485.851 529.732 485.815 529.861 485.746C529.99 485.677 530.099 485.577 530.18 485.455C530.261 485.334 530.311 485.194 530.326 485.049C530.34 484.903 530.318 484.757 530.262 484.622L510.592 438.102C510.504 437.897 510.362 437.72 510.18 437.592C509.998 437.463 509.785 437.387 509.562 437.372C508.482 437.298 507.376 437.262 506.242 437.262C505.109 437.262 504.002 437.298 502.922 437.372C502.699 437.388 502.484 437.465 502.303 437.596C502.121 437.727 501.979 437.905 501.892 438.112L482.282 484.652C482.227 484.787 482.205 484.933 482.219 485.079C482.233 485.224 482.283 485.364 482.364 485.485C482.445 485.607 482.555 485.707 482.684 485.776C482.812 485.845 482.956 485.881 483.102 485.882L489.172 485.872C489.683 485.872 490.182 485.715 490.602 485.424C491.022 485.133 491.343 484.72 491.522 484.242L494.752 475.542C494.881 475.199 495.111 474.904 495.412 474.697C495.712 474.489 496.068 474.379 496.432 474.382C499.732 474.395 503.009 474.402 506.262 474.402Z" stroke="#CCA244" stroke-width="2"/>
<path d="M683.641 474.271C686.874 474.278 690.131 474.274 693.411 474.261C693.772 474.257 694.125 474.365 694.424 474.571C694.723 474.777 694.952 475.07 695.081 475.411L698.291 484.051C698.469 484.528 698.788 484.939 699.207 485.228C699.625 485.518 700.122 485.672 700.631 485.671L706.661 485.681C706.806 485.681 706.948 485.645 707.076 485.576C707.204 485.508 707.312 485.409 707.392 485.288C707.473 485.167 707.522 485.029 707.535 484.884C707.549 484.74 707.527 484.595 707.471 484.461L687.981 438.211C687.895 438.007 687.754 437.831 687.574 437.702C687.394 437.573 687.182 437.497 686.961 437.481C685.881 437.408 684.781 437.371 683.661 437.371C682.534 437.371 681.434 437.408 680.361 437.481C680.138 437.495 679.924 437.571 679.742 437.7C679.56 437.829 679.418 438.006 679.331 438.211L659.791 484.441C659.735 484.575 659.713 484.722 659.727 484.867C659.741 485.012 659.791 485.151 659.872 485.272C659.954 485.393 660.064 485.492 660.193 485.56C660.322 485.628 660.465 485.662 660.611 485.661H666.641C667.15 485.662 667.647 485.508 668.065 485.218C668.484 484.929 668.803 484.518 668.981 484.041L672.191 475.401C672.32 475.06 672.549 474.767 672.848 474.561C673.147 474.355 673.5 474.247 673.861 474.251C677.148 474.264 680.408 474.271 683.641 474.271Z" stroke="#CCA244" stroke-width="2"/>
<path d="M608.591 473.95L605.081 477.45C604.899 477.631 604.759 477.849 604.671 478.089C604.582 478.33 604.547 478.586 604.568 478.841C604.589 479.097 604.666 479.344 604.792 479.567C604.919 479.789 605.092 479.982 605.301 480.13C609.821 483.357 614.977 485.337 620.771 486.07C625.821 486.71 634.251 485.46 637.721 481.43C641.481 477.06 642.251 470.8 639.441 465.8C636.751 461.02 628.951 458.97 623.811 457.76C618.921 456.6 611.641 454.17 615.551 447.9C617.751 444.38 623.701 445.16 627.261 446C629.251 446.46 630.981 447.57 633.011 448.62C633.339 448.791 633.714 448.852 634.081 448.795C634.448 448.737 634.788 448.564 635.051 448.3L638.391 444.96C638.59 444.761 638.741 444.52 638.832 444.253C638.923 443.987 638.951 443.704 638.916 443.424C638.88 443.145 638.781 442.878 638.626 442.643C638.47 442.409 638.263 442.212 638.021 442.07C630.394 437.637 622.737 436.6 615.051 438.96C606.851 441.48 604.631 449.61 607.251 457.06C609.671 463.94 623.081 465.86 628.341 467.43C628.606 467.51 628.865 467.624 629.111 467.77C630.664 468.73 631.657 469.584 632.091 470.33C634.101 473.82 631.381 477.78 627.641 478.29C621.194 479.177 615.564 477.69 610.751 473.83C610.438 473.58 610.044 473.453 609.645 473.475C609.246 473.497 608.87 473.667 608.591 473.95Z" stroke="#CCA244" stroke-width="2"/>
<path d="M767.541 459.029L749.531 459.249C749.424 459.25 749.319 459.273 749.222 459.315C749.124 459.358 749.035 459.419 748.961 459.496C748.887 459.573 748.828 459.664 748.789 459.764C748.749 459.865 748.729 459.971 748.731 460.079L748.801 465.779C748.802 465.888 748.825 465.996 748.868 466.096C748.911 466.196 748.973 466.287 749.051 466.363C749.129 466.439 749.221 466.499 749.322 466.54C749.424 466.58 749.532 466.6 749.641 466.599L759.511 466.479C759.608 466.478 759.704 466.496 759.795 466.532C759.885 466.568 759.967 466.621 760.037 466.689C760.107 466.756 760.162 466.837 760.201 466.927C760.239 467.016 760.259 467.112 760.261 467.209L760.351 474.589C760.354 474.828 760.294 475.064 760.176 475.272C760.058 475.479 759.887 475.651 759.681 475.769C751.891 480.399 740.801 479.629 735.661 471.349C732.311 465.969 732.831 456.369 736.731 451.399C742.501 444.059 752.201 443.449 759.461 448.869C759.911 449.206 760.467 449.369 761.029 449.329C761.591 449.289 762.121 449.047 762.521 448.649L765.351 445.819C765.568 445.601 765.736 445.338 765.842 445.049C765.948 444.76 765.99 444.451 765.966 444.144C765.941 443.837 765.85 443.539 765.699 443.271C765.548 443.002 765.34 442.77 765.091 442.589C758.941 438.179 749.661 436.479 742.071 438.599C734.751 440.652 729.647 444.966 726.761 451.539C722.121 462.109 724.731 476.549 734.881 482.639C744.451 488.369 757.201 487.109 766.291 480.679C767.597 479.752 768.267 478.662 768.301 477.409C768.447 471.929 768.467 466.066 768.361 459.819C768.355 459.606 768.266 459.404 768.113 459.256C767.959 459.108 767.754 459.026 767.541 459.029Z" stroke="#CCA244" stroke-width="2"/>
<path d="M548.611 477.54C548.446 477.706 548.318 477.905 548.237 478.125C548.156 478.345 548.123 478.579 548.142 478.812C548.16 479.045 548.228 479.271 548.342 479.474C548.456 479.677 548.613 479.853 548.801 479.99C556.641 485.69 568.922 488.58 577.732 483.8C581.072 481.98 583.115 478.97 583.861 474.77C586.151 461.83 574.731 459.29 565.271 457.04C563.198 456.54 561.448 455.806 560.021 454.84C559.726 454.636 559.485 454.365 559.321 454.05C557.831 451.24 557.812 447.95 560.782 446.3C565.172 443.86 572.041 445.9 576.301 448.38C576.823 448.68 577.441 448.767 578.026 448.624C578.611 448.481 579.118 448.117 579.441 447.61L581.482 444.43C581.625 444.206 581.721 443.956 581.767 443.694C581.812 443.433 581.805 443.165 581.745 442.907C581.685 442.649 581.575 442.405 581.419 442.191C581.264 441.977 581.068 441.796 580.842 441.66C571.432 435.95 550.882 434.81 549.722 450.56C549.368 455.266 550.718 458.766 553.771 461.06C555.541 462.38 558.061 463.21 559.421 463.83C564.131 466 572.391 466.13 575.301 470.1C576.108 471.193 576.305 472.713 575.891 474.66C575.371 477.12 571.661 478.37 569.581 478.48C563.635 478.793 558.558 477.3 554.352 474C554.014 473.732 553.589 473.599 553.157 473.625C552.726 473.651 552.318 473.834 552.011 474.14L548.611 477.54Z" stroke="#CCA244" stroke-width="2"/>
<path d="M165.831 485.559C166.451 485.552 167.571 485.592 169.191 485.679C169.3 485.684 169.409 485.667 169.512 485.629C169.614 485.591 169.708 485.532 169.786 485.456C169.865 485.38 169.927 485.289 169.969 485.188C170.012 485.087 170.032 484.978 170.031 484.869L169.551 446.189C169.551 446.085 169.593 445.984 169.668 445.91C169.742 445.835 169.844 445.791 169.951 445.789L183.831 445.619C184.102 445.616 184.362 445.507 184.553 445.314C184.744 445.121 184.851 444.86 184.851 444.589V439.179C184.851 438.918 184.748 438.668 184.565 438.482C184.381 438.297 184.132 438.192 183.871 438.189C177.831 438.142 171.758 438.146 165.651 438.199C159.551 438.192 153.481 438.236 147.441 438.329C147.311 438.33 147.182 438.357 147.063 438.408C146.943 438.459 146.835 438.533 146.744 438.626C146.653 438.719 146.581 438.829 146.532 438.949C146.484 439.07 146.46 439.199 146.461 439.329L146.501 444.739C146.504 445.01 146.613 445.27 146.806 445.461C146.999 445.652 147.26 445.759 147.531 445.759L161.411 445.819C161.52 445.819 161.624 445.861 161.701 445.936C161.778 446.011 161.821 446.113 161.821 446.219L161.631 484.899C161.631 485.008 161.653 485.117 161.696 485.217C161.74 485.318 161.803 485.408 161.883 485.483C161.962 485.558 162.057 485.616 162.159 485.653C162.262 485.69 162.372 485.706 162.481 485.699C164.094 485.606 165.211 485.559 165.831 485.559Z" stroke="#CCA244" stroke-width="2"/>
<path d="M216.36 485.639C216.557 485.637 216.746 485.556 216.884 485.416C217.023 485.276 217.1 485.086 217.1 484.889V466.339C217.1 466.14 217.179 465.949 217.32 465.809C217.461 465.668 217.651 465.589 217.85 465.589H237.88C238.079 465.589 238.27 465.668 238.411 465.809C238.551 465.949 238.63 466.14 238.63 466.339V484.839C238.63 485.038 238.709 485.229 238.85 485.37C238.991 485.51 239.181 485.589 239.38 485.589H246.64C246.74 485.589 246.838 485.57 246.93 485.531C247.021 485.493 247.104 485.437 247.174 485.366C247.244 485.295 247.299 485.211 247.336 485.119C247.373 485.027 247.392 484.929 247.39 484.829L246.83 438.939C246.828 438.742 246.747 438.554 246.607 438.415C246.467 438.277 246.277 438.199 246.08 438.199H239.3C239.101 438.199 238.911 438.278 238.77 438.419C238.629 438.56 238.55 438.75 238.55 438.949V456.869C238.55 457.066 238.473 457.256 238.334 457.396C238.196 457.536 238.007 457.617 237.81 457.619L217.86 457.869C217.762 457.871 217.664 457.852 217.572 457.816C217.481 457.779 217.398 457.725 217.327 457.657C217.256 457.588 217.2 457.506 217.161 457.416C217.122 457.325 217.102 457.228 217.1 457.129L216.88 438.939C216.878 438.742 216.797 438.554 216.657 438.415C216.517 438.277 216.327 438.199 216.13 438.199H209.16C209.061 438.199 208.963 438.219 208.871 438.257C208.779 438.296 208.696 438.352 208.626 438.422C208.557 438.493 208.502 438.577 208.464 438.669C208.427 438.761 208.409 438.86 208.41 438.959L208.98 484.979C208.982 485.078 209.002 485.175 209.041 485.266C209.08 485.356 209.136 485.438 209.207 485.507C209.278 485.575 209.361 485.63 209.452 485.666C209.544 485.702 209.642 485.721 209.74 485.719L216.36 485.639Z" stroke="#CCA244" stroke-width="2"/>
<path d="M350.845 439.319C350.843 439.156 350.809 438.995 350.745 438.845C350.681 438.696 350.588 438.56 350.472 438.446C350.355 438.333 350.217 438.243 350.066 438.182C349.915 438.122 349.753 438.092 349.59 438.094L343.311 438.171C343.148 438.172 342.987 438.207 342.837 438.271C342.688 438.335 342.552 438.428 342.438 438.544C342.325 438.661 342.235 438.799 342.175 438.95C342.114 439.101 342.084 439.263 342.086 439.426L342.637 484.522C342.639 484.685 342.673 484.846 342.737 484.996C342.801 485.145 342.894 485.281 343.011 485.395C343.127 485.508 343.265 485.598 343.416 485.658C343.568 485.719 343.729 485.749 343.892 485.747L350.172 485.67C350.334 485.668 350.495 485.634 350.645 485.57C350.795 485.506 350.93 485.413 351.044 485.296C351.158 485.18 351.247 485.042 351.308 484.891C351.368 484.74 351.398 484.578 351.396 484.415L350.845 439.319Z" stroke="#CCA244" stroke-width="2"/>
<path d="M422.141 485.529C422.231 485.529 422.318 485.493 422.382 485.43C422.445 485.366 422.481 485.279 422.481 485.189V452.729C422.478 452.654 422.501 452.58 422.544 452.519C422.588 452.457 422.651 452.412 422.723 452.391C422.795 452.369 422.872 452.372 422.942 452.399C423.013 452.425 423.072 452.475 423.111 452.539L436.571 473.869C436.602 473.919 436.644 473.96 436.695 473.988C436.746 474.017 436.803 474.032 436.861 474.032C436.919 474.032 436.977 474.017 437.027 473.988C437.078 473.96 437.121 473.919 437.151 473.869L451.281 451.759C451.32 451.696 451.379 451.647 451.448 451.62C451.517 451.593 451.593 451.589 451.665 451.61C451.736 451.63 451.799 451.673 451.843 451.733C451.888 451.792 451.912 451.865 451.911 451.939V485.319C451.911 485.409 451.947 485.496 452.011 485.56C452.075 485.623 452.161 485.659 452.251 485.659L459.761 485.559C459.851 485.559 459.938 485.523 460.002 485.459C460.065 485.396 460.101 485.309 460.101 485.219V438.379C460.101 438.289 460.065 438.202 460.002 438.139C459.938 438.075 459.851 438.039 459.761 438.039H451.261C451.203 438.039 451.146 438.053 451.095 438.081C451.045 438.109 451.002 438.15 450.971 438.199L437.291 459.599C437.261 459.649 437.218 459.69 437.167 459.718C437.117 459.747 437.059 459.762 437.001 459.762C436.943 459.762 436.886 459.747 436.835 459.718C436.784 459.69 436.742 459.649 436.711 459.599L423.271 438.319C423.241 438.27 423.198 438.229 423.147 438.201C423.096 438.173 423.039 438.159 422.981 438.159H414.371C414.281 438.159 414.195 438.195 414.131 438.259C414.067 438.322 414.031 438.409 414.031 438.499L414.621 485.289C414.621 485.379 414.657 485.466 414.721 485.53C414.785 485.593 414.871 485.629 414.961 485.629L422.141 485.529Z" stroke="#CCA244" stroke-width="2"/>
<path d="M793.18 438.191C793.067 438.191 792.956 438.214 792.851 438.257C792.747 438.3 792.652 438.364 792.572 438.443C792.492 438.523 792.429 438.618 792.386 438.722C792.343 438.827 792.32 438.938 792.32 439.051V484.671C792.32 484.899 792.411 485.118 792.572 485.28C792.733 485.441 792.952 485.531 793.18 485.531H826.96C827.188 485.531 827.407 485.441 827.568 485.28C827.73 485.118 827.82 484.899 827.82 484.671V478.471C827.82 478.243 827.73 478.025 827.568 477.863C827.407 477.702 827.188 477.611 826.96 477.611H801.82C801.592 477.611 801.374 477.521 801.212 477.359C801.051 477.198 800.96 476.98 800.96 476.751V466.461C800.96 466.233 801.051 466.015 801.212 465.853C801.374 465.692 801.592 465.601 801.82 465.601H823.12C823.348 465.601 823.567 465.511 823.728 465.349C823.89 465.188 823.98 464.97 823.98 464.741V458.711C823.98 458.483 823.89 458.265 823.728 458.103C823.567 457.942 823.348 457.851 823.12 457.851H801.62C801.392 457.851 801.173 457.761 801.012 457.599C800.851 457.438 800.76 457.22 800.76 456.991V446.741C800.76 446.629 800.783 446.517 800.826 446.412C800.869 446.308 800.932 446.213 801.012 446.133C801.092 446.053 801.187 445.99 801.291 445.947C801.396 445.904 801.507 445.881 801.62 445.881H826.15C826.378 445.881 826.597 445.791 826.758 445.63C826.92 445.468 827.01 445.249 827.01 445.021V439.051C827.01 438.938 826.988 438.827 826.945 438.722C826.902 438.618 826.838 438.523 826.758 438.443C826.679 438.364 826.584 438.3 826.479 438.257C826.375 438.214 826.263 438.191 826.15 438.191H793.18Z" stroke="#CCA244" stroke-width="2"/>
<path d="M294.844 335.67C294.824 335.718 294.817 335.77 294.822 335.822C294.827 335.873 294.845 335.923 294.873 335.966C294.902 336.009 294.94 336.045 294.986 336.07C295.031 336.095 295.082 336.109 295.134 336.11L338.004 336.56C338.055 336.56 338.106 336.547 338.151 336.524C338.197 336.5 338.236 336.465 338.266 336.423C338.295 336.381 338.314 336.332 338.321 336.281C338.327 336.23 338.321 336.178 338.304 336.13L317.444 281.37C317.422 281.308 317.382 281.255 317.329 281.217C317.276 281.178 317.213 281.157 317.147 281.156C317.082 281.155 317.018 281.174 316.963 281.211C316.909 281.247 316.867 281.299 316.844 281.36L294.844 335.67Z" stroke="#CCA244" stroke-width="2"/>
<path d="M649.422 266.929L649.622 326.549C649.624 326.603 649.648 326.654 649.687 326.691C649.726 326.728 649.778 326.749 649.832 326.749L673.562 326.669C677.623 326.656 681.643 325.912 685.39 324.479C689.138 323.047 692.54 320.954 695.403 318.321C698.266 315.687 700.534 312.564 702.076 309.131C703.618 305.697 704.405 302.02 704.392 298.309L704.372 294.769C704.345 287.278 701.063 280.106 695.248 274.829C689.433 269.552 681.561 266.603 673.362 266.629L649.632 266.719C649.604 266.719 649.577 266.725 649.552 266.735C649.526 266.746 649.503 266.761 649.483 266.781C649.464 266.8 649.448 266.823 649.438 266.849C649.427 266.874 649.422 266.901 649.422 266.929Z" stroke="#CCA244" stroke-width="2"/>
<path d="M535.193 281.681C535.158 281.587 535.094 281.506 535.012 281.449C534.93 281.392 534.832 281.36 534.732 281.359C534.632 281.358 534.533 281.387 534.45 281.443C534.366 281.498 534.301 281.578 534.263 281.671L512.373 335.611C512.342 335.686 512.33 335.769 512.338 335.85C512.346 335.932 512.375 336.01 512.42 336.078C512.465 336.146 512.527 336.202 512.599 336.241C512.671 336.28 512.752 336.3 512.833 336.301H554.823C554.904 336.301 554.983 336.281 555.054 336.244C555.125 336.207 555.186 336.154 555.233 336.088C555.279 336.022 555.308 335.946 555.319 335.867C555.329 335.787 555.321 335.706 555.293 335.631L535.193 281.681Z" stroke="#CCA244" stroke-width="2"/>
<path d="M286.811 466.45C286.79 466.502 286.781 466.557 286.787 466.613C286.792 466.668 286.811 466.721 286.841 466.768C286.872 466.814 286.913 466.852 286.962 466.879C287.011 466.906 287.065 466.92 287.121 466.92L302.321 466.9C302.377 466.901 302.433 466.888 302.483 466.862C302.533 466.836 302.576 466.798 302.608 466.752C302.64 466.705 302.659 466.651 302.665 466.595C302.671 466.539 302.663 466.483 302.641 466.43L295.001 448.11C294.976 448.048 294.932 447.994 294.876 447.956C294.82 447.919 294.754 447.898 294.686 447.898C294.618 447.898 294.552 447.919 294.496 447.956C294.44 447.994 294.396 448.048 294.371 448.11L286.811 466.45Z" stroke="#CCA244" stroke-width="2"/>
<path d="M498.34 466.378C498.314 466.442 498.304 466.512 498.311 466.58C498.318 466.649 498.341 466.715 498.38 466.773C498.419 466.83 498.471 466.877 498.532 466.909C498.593 466.942 498.661 466.959 498.73 466.958L513.7 466.878C513.77 466.878 513.838 466.86 513.899 466.826C513.96 466.792 514.012 466.744 514.049 466.686C514.087 466.627 514.11 466.56 514.115 466.491C514.12 466.421 514.108 466.352 514.08 466.288L506.5 448.748C506.468 448.673 506.414 448.609 506.345 448.565C506.277 448.52 506.197 448.496 506.115 448.496C506.033 448.496 505.954 448.52 505.885 448.565C505.817 448.609 505.763 448.673 505.73 448.748L498.34 466.378Z" stroke="#CCA244" stroke-width="2"/>
<path d="M675.69 466.471C675.669 466.522 675.66 466.578 675.666 466.633C675.671 466.688 675.69 466.742 675.72 466.788C675.751 466.834 675.792 466.872 675.841 466.899C675.89 466.926 675.944 466.94 676 466.941L691.04 466.861C691.096 466.862 691.152 466.849 691.202 466.823C691.252 466.797 691.295 466.759 691.327 466.712C691.359 466.665 691.378 466.612 691.384 466.556C691.39 466.499 691.381 466.443 691.36 466.391L683.74 448.271C683.714 448.208 683.671 448.154 683.615 448.117C683.559 448.079 683.493 448.059 683.425 448.059C683.357 448.059 683.291 448.079 683.235 448.117C683.179 448.154 683.135 448.208 683.11 448.271L675.69 466.471Z" stroke="#CCA244" stroke-width="2"/>
<path d="M627.282 217.19C627.659 217.19 628.02 217.04 628.286 216.771C628.552 216.503 628.702 216.139 628.702 215.76C628.629 188.714 628.652 168.85 628.772 156.17C628.932 139.25 628.412 126.884 627.212 119.07C624.525 101.61 618.589 85.0535 609.402 69.4002C603.189 58.8069 596.472 49.9335 589.252 42.7802C576.662 30.3002 561.782 19.6302 545.372 12.4802C529.699 5.64688 513.425 1.90351 496.552 1.25018C486.562 0.860177 475.372 0.810198 466.292 1.9602C434.872 5.94687 407.729 18.8835 384.862 40.7702C367.882 57.0169 355.915 76.2902 348.962 98.5902C346.809 105.484 345.125 113.154 343.912 121.6C343.132 127.074 342.749 134.914 342.762 145.12C342.835 188.22 342.879 211.744 342.892 215.69C342.892 216.075 343.046 216.444 343.32 216.716C343.593 216.987 343.965 217.14 344.352 217.14H347.642C347.805 217.14 347.966 217.108 348.117 217.046C348.267 216.984 348.404 216.892 348.519 216.777C348.634 216.662 348.725 216.525 348.788 216.375C348.85 216.224 348.882 216.063 348.882 215.9C348.902 188.4 348.875 165.807 348.802 148.12C348.762 137.22 349.192 128.877 350.092 123.09C351.245 115.65 353.479 107.597 356.792 98.9302C366.005 74.8302 380.895 55.0502 401.462 39.5902C421.562 24.4902 444.019 15.4336 468.832 12.4202C472.012 12.0402 475.475 11.8335 479.222 11.8002C488.402 11.7302 496.812 11.3602 505.212 12.5102C528.059 15.6235 548.592 23.7668 566.812 36.9402C592.665 55.6402 609.965 80.5002 618.712 111.52C621.199 120.32 622.449 128.18 622.462 135.1C622.522 157.1 622.539 183.994 622.512 215.78C622.512 216.154 622.66 216.513 622.922 216.777C623.185 217.042 623.541 217.19 623.912 217.19H627.282Z" stroke="#CCA244" stroke-width="2"/>
<path d="M529.112 118.93C526.092 102.71 519.626 87.663 509.712 73.7897C503.652 65.2997 495.132 57.7597 487.262 51.1497C486.921 50.8613 486.489 50.7031 486.042 50.7031C485.596 50.7031 485.163 50.8613 484.822 51.1497C480.502 54.7797 474.322 59.8697 470.512 63.9097C456.792 78.4597 445.822 98.2096 442.962 118.39C442.939 118.553 442.875 118.708 442.776 118.841C442.678 118.974 442.548 119.08 442.398 119.151C442.249 119.221 442.084 119.253 441.919 119.244C441.754 119.235 441.593 119.186 441.452 119.1C439.112 117.673 436.179 116.28 432.652 114.92C419.012 109.65 401.572 105.89 386.252 107.16C386.001 107.18 385.763 107.282 385.577 107.45C385.391 107.619 385.266 107.843 385.222 108.09C384.616 111.49 384.262 115.236 384.162 119.33C382.982 166.29 417.332 206.04 462.512 215.17C471.319 216.95 481.152 217.71 492.012 217.45C505.632 217.13 518.312 213.99 530.662 208.52C546.949 201.32 560.222 190.27 570.482 175.37C581.816 158.903 587.349 140.73 587.082 120.85C587.012 115.43 587.082 112.05 586.542 107.73C586.517 107.536 586.424 107.358 586.282 107.226C586.139 107.094 585.955 107.018 585.762 107.01C565.936 106.25 547.189 110.29 529.522 119.13C529.483 119.149 529.439 119.159 529.395 119.159C529.352 119.159 529.308 119.149 529.269 119.129C529.229 119.11 529.195 119.082 529.168 119.047C529.14 119.013 529.122 118.973 529.112 118.93Z" stroke="#9AA985" stroke-width="2"/>
<path d="M485.663 168.121C485.683 168.121 485.703 168.121 485.723 168.121C485.754 168.119 485.782 168.113 485.804 168.104C485.825 168.095 485.839 168.084 485.843 168.071C492.61 150.311 503.943 135.941 519.843 124.961C520.033 124.829 520.183 124.648 520.277 124.438C520.37 124.228 520.404 123.997 520.373 123.771C517.313 100.541 504.743 78.4111 486.393 63.2611C486.28 63.1678 486.123 63.1211 485.923 63.1211C485.716 63.1211 485.557 63.1678 485.443 63.2611C467.023 78.3211 454.343 100.381 451.163 123.601C451.133 123.827 451.166 124.058 451.26 124.268C451.353 124.478 451.503 124.659 451.693 124.791C467.533 135.851 478.793 150.278 485.473 168.071C485.478 168.083 485.491 168.095 485.513 168.104C485.534 168.113 485.563 168.119 485.593 168.121C485.613 168.121 485.637 168.121 485.663 168.121Z" stroke="#9AA985" stroke-width="2"/>
<path d="M474.19 207.59C474.236 207.594 474.282 207.582 474.321 207.558C474.36 207.533 474.389 207.496 474.405 207.453C474.421 207.41 474.422 207.363 474.409 207.319C474.395 207.275 474.368 207.237 474.33 207.21C463.34 199.06 455.5 187.96 449.69 175.44C443.204 161.48 440.414 146.593 441.32 130.78C441.342 130.421 441.261 130.064 441.087 129.751C440.914 129.437 440.655 129.18 440.34 129.01C425.754 121.13 410.284 116.913 393.93 116.36C393.87 116.357 393.81 116.366 393.753 116.387C393.696 116.408 393.644 116.439 393.599 116.48C393.555 116.521 393.519 116.57 393.493 116.625C393.467 116.68 393.453 116.739 393.45 116.8C392.51 131.906 395.487 146.1 402.38 159.38C410.554 175.146 421.584 187.036 435.47 195.05C447.804 202.17 460.71 206.35 474.19 207.59Z" stroke="#9AA985" stroke-width="2"/>
<path d="M497.493 207.882C510.967 206.589 523.857 202.359 536.163 195.192C550.023 187.125 561.007 175.195 569.113 159.402C575.96 146.095 578.883 131.889 577.883 116.782C577.876 116.662 577.821 116.549 577.731 116.469C577.642 116.389 577.524 116.347 577.403 116.352C561.05 116.965 545.597 121.239 531.043 129.172C530.729 129.345 530.471 129.604 530.299 129.919C530.128 130.235 530.049 130.593 530.073 130.952C531.04 146.759 528.307 161.655 521.873 175.642C516.103 188.182 508.313 199.312 497.353 207.502C497.316 207.529 497.288 207.567 497.275 207.611C497.261 207.655 497.263 207.702 497.279 207.745C497.294 207.789 497.324 207.825 497.363 207.85C497.402 207.875 497.448 207.886 497.493 207.882Z" stroke="#9AA985" stroke-width="2"/>
<path d="M457.782 172.011C462.968 183.078 470.618 192.631 480.732 200.671C480.838 200.751 480.945 200.768 481.052 200.721C481.158 200.668 481.212 200.574 481.212 200.441C481.505 187.528 479.058 175.538 473.872 164.471C468.685 153.404 461.038 143.851 450.932 135.811C450.818 135.724 450.708 135.708 450.602 135.761C450.502 135.808 450.448 135.901 450.442 136.041C450.148 148.954 452.595 160.944 457.782 172.011Z" stroke="#9AA985" stroke-width="2"/>
<path d="M490.232 200.841C490.345 200.894 490.479 200.857 490.632 200.731C504.145 189.984 513.232 176.504 517.892 160.291C520.192 152.311 520.822 144.391 521.172 136.151C521.185 135.911 521.092 135.744 520.892 135.651C520.685 135.557 520.495 135.587 520.322 135.741C514.202 141.271 508.502 146.811 503.822 153.671C494.309 167.604 489.719 183.201 490.052 200.461C490.059 200.654 490.119 200.781 490.232 200.841Z" stroke="#9AA985" stroke-width="2"/>
<path d="M627.282 217.19H623.912C623.541 217.19 623.185 217.042 622.922 216.777C622.66 216.513 622.512 216.154 622.512 215.78C622.539 183.994 622.522 157.1 622.462 135.1C622.449 128.18 621.199 120.32 618.712 111.52C609.965 80.5002 592.665 55.6402 566.812 36.9402C548.592 23.7668 528.059 15.6235 505.212 12.5102C496.812 11.3602 488.402 11.7302 479.222 11.8002C475.475 11.8335 472.012 12.0402 468.832 12.4202C444.019 15.4336 421.562 24.4902 401.462 39.5902C380.895 55.0502 366.005 74.8302 356.792 98.9302C353.479 107.597 351.245 115.65 350.092 123.09C349.192 128.877 348.762 137.22 348.802 148.12C348.875 165.807 348.902 188.4 348.882 215.9C348.882 216.063 348.85 216.224 348.788 216.375C348.725 216.525 348.634 216.662 348.519 216.777C348.404 216.892 348.267 216.984 348.117 217.046C347.966 217.108 347.805 217.14 347.642 217.14H344.352C343.965 217.14 343.593 216.987 343.32 216.716C343.046 216.444 342.892 216.075 342.892 215.69C342.879 211.744 342.835 188.22 342.762 145.12C342.749 134.914 343.132 127.074 343.912 121.6C345.125 113.154 346.809 105.484 348.962 98.5902C355.915 76.2902 367.882 57.0169 384.862 40.7702C407.729 18.8835 434.872 5.94687 466.292 1.9602C475.372 0.810198 486.562 0.860177 496.552 1.25018C513.425 1.90351 529.699 5.64688 545.372 12.4802C561.782 19.6302 576.662 30.3002 589.252 42.7802C596.472 49.9335 603.189 58.8069 609.402 69.4002C618.589 85.0535 624.525 101.61 627.212 119.07C628.412 126.884 628.932 139.25 628.772 156.17C628.652 168.85 628.629 188.714 628.702 215.76C628.702 216.139 628.552 216.503 628.286 216.771C628.02 217.04 627.659 217.19 627.282 217.19Z" fill="#CCA244"/>
<path d="M529.112 118.934C529.122 118.976 529.14 119.017 529.168 119.051C529.195 119.086 529.229 119.114 529.269 119.133C529.308 119.153 529.352 119.163 529.395 119.163C529.439 119.163 529.483 119.153 529.522 119.134C547.189 110.294 565.936 106.254 585.762 107.014C585.955 107.022 586.139 107.098 586.282 107.23C586.424 107.362 586.517 107.54 586.542 107.734C587.082 112.054 587.012 115.434 587.082 120.854C587.349 140.734 581.816 158.907 570.482 175.374C560.222 190.274 546.949 201.324 530.662 208.524C518.312 213.994 505.632 217.134 492.012 217.454C481.152 217.714 471.319 216.954 462.512 215.174C417.332 206.044 382.982 166.294 384.162 119.334C384.262 115.24 384.616 111.494 385.222 108.094C385.266 107.847 385.391 107.623 385.577 107.454C385.763 107.286 386.001 107.184 386.252 107.164C401.572 105.894 419.012 109.654 432.652 114.924C436.179 116.284 439.112 117.677 441.452 119.104C441.593 119.19 441.754 119.239 441.919 119.248C442.084 119.257 442.249 119.225 442.398 119.155C442.548 119.084 442.678 118.978 442.776 118.845C442.875 118.712 442.939 118.557 442.962 118.394C445.822 98.2136 456.792 78.4636 470.512 63.9136C474.322 59.8736 480.502 54.7836 484.822 51.1536C485.163 50.8653 485.596 50.707 486.042 50.707C486.489 50.707 486.921 50.8653 487.262 51.1536C495.132 57.7636 503.652 65.3036 509.712 73.7936C519.626 87.6669 526.092 102.714 529.112 118.934ZM485.662 168.124C485.682 168.124 485.702 168.124 485.722 168.124C485.753 168.121 485.781 168.115 485.803 168.106C485.824 168.097 485.838 168.086 485.842 168.074C492.609 150.314 503.942 135.944 519.842 124.964C520.032 124.831 520.182 124.65 520.276 124.44C520.369 124.23 520.403 124 520.372 123.774C517.312 100.544 504.742 78.4135 486.392 63.2635C486.279 63.1702 486.122 63.1235 485.922 63.1235C485.716 63.1235 485.556 63.1702 485.442 63.2635C467.022 78.3236 454.342 100.384 451.162 123.604C451.132 123.83 451.165 124.06 451.259 124.27C451.352 124.48 451.502 124.661 451.692 124.794C467.532 135.854 478.792 150.28 485.472 168.074C485.477 168.086 485.491 168.097 485.512 168.106C485.534 168.115 485.562 168.121 485.592 168.124C485.612 168.124 485.636 168.124 485.662 168.124ZM474.192 207.594C474.238 207.597 474.284 207.586 474.323 207.562C474.362 207.537 474.391 207.5 474.407 207.457C474.423 207.414 474.424 207.367 474.411 207.323C474.397 207.279 474.37 207.24 474.332 207.214C463.342 199.064 455.502 187.964 449.692 175.444C443.206 161.484 440.416 146.597 441.322 130.784C441.344 130.425 441.263 130.068 441.089 129.755C440.916 129.441 440.657 129.184 440.342 129.014C425.756 121.134 410.286 116.917 393.932 116.364C393.872 116.361 393.812 116.37 393.755 116.391C393.698 116.411 393.646 116.443 393.601 116.484C393.556 116.525 393.52 116.574 393.495 116.629C393.469 116.684 393.455 116.743 393.452 116.804C392.512 131.91 395.489 146.104 402.382 159.384C410.556 175.15 421.586 187.04 435.472 195.054C447.806 202.174 460.712 206.354 474.192 207.594ZM497.492 207.884C510.966 206.59 523.856 202.36 536.162 195.194C550.022 187.127 561.006 175.197 569.112 159.404C575.959 146.097 578.882 131.89 577.882 116.784C577.875 116.663 577.82 116.551 577.73 116.47C577.64 116.39 577.523 116.348 577.402 116.354C561.049 116.967 545.596 121.24 531.042 129.174C530.728 129.346 530.47 129.605 530.298 129.921C530.127 130.236 530.048 130.594 530.072 130.954C531.039 146.76 528.306 161.657 521.872 175.644C516.102 188.184 508.312 199.314 497.352 207.504C497.315 207.53 497.287 207.569 497.274 207.613C497.26 207.657 497.262 207.704 497.277 207.747C497.293 207.79 497.323 207.827 497.362 207.852C497.401 207.876 497.446 207.887 497.492 207.884ZM457.782 172.014C462.969 183.08 470.619 192.634 480.732 200.674C480.839 200.754 480.946 200.77 481.052 200.724C481.159 200.67 481.212 200.577 481.212 200.444C481.506 187.53 479.059 175.54 473.872 164.474C468.686 153.407 461.039 143.854 450.932 135.814C450.819 135.727 450.709 135.71 450.602 135.764C450.502 135.81 450.449 135.904 450.442 136.044C450.149 148.957 452.596 160.947 457.782 172.014ZM490.232 200.844C490.346 200.897 490.479 200.86 490.632 200.734C504.146 189.987 513.232 176.507 517.892 160.294C520.192 152.314 520.822 144.394 521.172 136.154C521.186 135.914 521.092 135.747 520.892 135.654C520.686 135.56 520.496 135.59 520.322 135.744C514.202 141.274 508.502 146.814 503.822 153.674C494.309 167.607 489.719 183.204 490.052 200.464C490.059 200.657 490.119 200.784 490.232 200.844Z" fill="#9AA985"/>
<path d="M386.614 383.471C372.561 383.544 358.924 383.511 345.704 383.371C345.384 383.371 345.034 383.288 344.654 383.121C344.573 383.088 344.503 383.033 344.45 382.964C344.398 382.894 344.365 382.812 344.354 382.725C344.344 382.639 344.357 382.551 344.392 382.471C344.427 382.391 344.483 382.322 344.554 382.271L349.884 378.341C350.015 378.243 350.115 378.111 350.174 377.961C351.447 374.841 351.691 372.224 350.904 370.111C344.857 353.931 341.591 345.211 341.104 343.951C340.924 343.483 340.607 343.08 340.194 342.796C339.782 342.512 339.294 342.361 338.794 342.361H292.544C292.359 342.36 292.177 342.419 292.027 342.529C291.876 342.638 291.763 342.793 291.704 342.971C291.071 344.898 289.314 349.674 286.434 357.301C284.327 362.901 283.237 366.668 283.164 368.601C282.874 376.071 286.704 378.781 292.294 382.101C292.386 382.155 292.462 382.234 292.514 382.328C292.566 382.422 292.592 382.528 292.589 382.635C292.586 382.742 292.554 382.846 292.497 382.937C292.44 383.028 292.359 383.102 292.264 383.151C291.884 383.338 291.364 383.434 290.704 383.441C283.004 383.468 274.047 383.471 263.834 383.451C263.407 383.451 263.167 383.424 263.114 383.371C262.988 383.249 262.893 383.1 262.836 382.934C262.78 382.769 262.764 382.592 262.789 382.419C262.814 382.246 262.881 382.082 262.983 381.939C263.084 381.797 263.218 381.681 263.374 381.601C266.621 379.921 269.491 377.651 271.984 374.791C273.237 373.351 274.844 370.108 276.804 365.061C287.057 338.741 298.751 309.381 311.884 276.981C312.924 274.421 313.544 272.391 312.504 269.791C311.317 266.851 309.157 264.461 306.024 262.621C305.644 262.401 305.484 262.108 305.544 261.741C305.569 261.602 305.619 261.468 305.693 261.349C305.766 261.23 305.861 261.127 305.972 261.048C306.082 260.968 306.206 260.913 306.335 260.886C306.465 260.859 306.597 260.861 306.724 260.891C307.911 261.178 309.291 261.371 310.864 261.471C311.071 261.484 317.957 261.498 331.524 261.511C331.741 261.511 331.953 261.577 332.131 261.7C332.31 261.823 332.447 261.998 332.524 262.201C347.484 302.954 360.614 337.768 371.914 366.641C374.801 374.028 379.774 379.278 386.834 382.391C386.95 382.446 387.046 382.538 387.104 382.654C387.162 382.769 387.18 382.901 387.154 383.026C387.128 383.152 387.061 383.265 386.963 383.345C386.865 383.426 386.742 383.47 386.614 383.471ZM294.844 335.671C294.824 335.719 294.817 335.771 294.822 335.823C294.827 335.874 294.845 335.924 294.873 335.967C294.902 336.01 294.941 336.046 294.986 336.071C295.031 336.096 295.082 336.11 295.134 336.111L338.004 336.561C338.055 336.561 338.106 336.548 338.152 336.525C338.197 336.501 338.236 336.466 338.266 336.424C338.295 336.382 338.314 336.333 338.321 336.282C338.327 336.231 338.322 336.179 338.304 336.131L317.444 281.371C317.422 281.309 317.382 281.256 317.329 281.218C317.276 281.179 317.213 281.158 317.147 281.157C317.082 281.156 317.018 281.175 316.964 281.211C316.909 281.248 316.868 281.3 316.844 281.361L294.844 335.671Z" fill="#CCA244"/>
<path d="M440.525 363.154C440.57 363.191 440.623 363.217 440.68 363.23C440.737 363.242 440.796 363.241 440.853 363.227C440.909 363.212 440.962 363.184 441.006 363.145C441.049 363.107 441.083 363.058 441.105 363.004C448.165 344.174 454.785 326.824 463.275 306.194C466.415 298.574 469.395 290.874 472.215 283.094C475.265 274.714 474.625 266.704 465.975 262.464C465.829 262.389 465.714 262.267 465.647 262.118C465.58 261.969 465.566 261.802 465.607 261.644C465.647 261.486 465.741 261.346 465.871 261.248C466.001 261.15 466.161 261.099 466.325 261.104C474.518 261.55 483.005 261.48 491.785 260.894C491.975 260.88 492.163 260.911 492.335 260.984L493.155 261.314C493.312 261.379 493.447 261.489 493.541 261.63C493.636 261.772 493.687 261.938 493.687 262.109C493.687 262.279 493.636 262.445 493.541 262.587C493.447 262.728 493.312 262.839 493.155 262.904C487.165 265.324 483.815 270.234 481.365 276.474C474.551 293.847 467.695 311.194 460.795 328.514C453.635 346.484 447.005 364.864 439.195 382.674C439.09 382.909 438.92 383.11 438.705 383.252C438.491 383.393 438.241 383.47 437.985 383.474L428.405 383.594C427.962 383.596 427.528 383.467 427.159 383.223C426.791 382.979 426.504 382.631 426.335 382.224C424.475 377.757 421.488 370.394 417.375 360.134C413.435 350.314 404.705 329.804 391.185 298.604C387.635 290.394 383.435 278.624 378.795 271.474C376.401 267.78 373.391 264.71 369.765 262.264C369.657 262.189 369.577 262.081 369.536 261.958C369.494 261.834 369.493 261.7 369.534 261.575C369.574 261.451 369.653 261.343 369.76 261.267C369.866 261.191 369.994 261.151 370.125 261.154C382.818 261.614 394.978 261.597 406.605 261.104C406.734 261.1 406.861 261.133 406.973 261.198C407.084 261.264 407.175 261.359 407.235 261.474C407.535 262.04 407.335 262.487 406.635 262.814C399.815 266.034 401.365 271.104 404.095 277.244C407.848 285.697 413.425 298.684 420.825 316.204C422.505 320.174 423.725 323.784 425.335 327.434C431.341 341.04 436.321 352.824 440.275 362.784C440.341 362.944 440.425 363.067 440.525 363.154Z" fill="#CCA244"/>
<path d="M659.961 383.171C659.641 383.351 659.241 383.447 658.761 383.461C656.115 383.507 643.761 383.481 621.701 383.381C620.841 383.374 620.368 383.361 620.281 383.341C620.073 383.277 619.89 383.147 619.761 382.972C619.631 382.796 619.561 382.584 619.561 382.366C619.561 382.148 619.631 381.935 619.761 381.76C619.89 381.584 620.073 381.455 620.281 381.391C626.401 379.464 629.495 375.107 629.561 368.321C629.775 345.221 629.788 315.731 629.601 279.851C629.575 275.004 629.078 271.604 628.111 269.651C626.651 266.691 624.008 264.277 620.181 262.411C619.761 262.204 619.545 261.901 619.531 261.501C619.525 261.054 619.715 260.861 620.101 260.921C622.228 261.234 624.098 261.391 625.711 261.391C657.091 261.331 675.255 261.281 680.201 261.241C693.841 261.131 708.491 264.371 717.251 274.491C720.165 277.857 722.268 282.337 723.561 287.931C728.111 307.671 716.911 326.031 696.791 330.071C696.668 330.095 696.553 330.149 696.454 330.227C696.356 330.305 696.278 330.405 696.226 330.52C696.174 330.634 696.15 330.759 696.156 330.884C696.163 331.01 696.199 331.132 696.261 331.241C704.308 345.327 712.068 357.857 719.541 368.831C723.635 374.837 729.111 379.131 735.971 381.711C736.371 381.864 736.608 382.171 736.681 382.631C736.696 382.731 736.689 382.834 736.661 382.931C736.633 383.029 736.584 383.119 736.519 383.196C736.453 383.272 736.372 383.334 736.281 383.376C736.19 383.419 736.092 383.441 735.991 383.441H706.661C706.242 383.441 705.829 383.33 705.464 383.12C705.099 382.909 704.794 382.606 704.581 382.241L676.621 333.811C676.402 333.431 676.087 333.115 675.708 332.896C675.329 332.676 674.899 332.561 674.461 332.561H650.851C650.593 332.561 650.345 332.663 650.162 332.844C649.978 333.026 649.874 333.273 649.871 333.531C649.858 336.104 649.828 346.337 649.781 364.231C649.771 367.711 650.101 372.731 651.391 375.151C653.171 378.511 656.341 380.221 659.911 381.871C660.034 381.927 660.138 382.016 660.213 382.128C660.287 382.24 660.33 382.371 660.335 382.505C660.34 382.64 660.308 382.773 660.242 382.891C660.176 383.008 660.079 383.105 659.961 383.171ZM649.421 266.931L649.621 326.551C649.624 326.605 649.647 326.656 649.686 326.693C649.725 326.73 649.777 326.751 649.831 326.751L673.561 326.671C677.623 326.658 681.642 325.914 685.39 324.481C689.137 323.049 692.54 320.956 695.403 318.322C698.266 315.689 700.533 312.566 702.075 309.132C703.618 305.699 704.405 302.021 704.391 298.311L704.371 294.771C704.345 287.28 701.063 280.108 695.248 274.831C689.433 269.554 681.56 266.604 673.361 266.631L649.631 266.721C649.604 266.721 649.576 266.726 649.551 266.737C649.526 266.747 649.502 266.763 649.483 266.782C649.463 266.802 649.448 266.825 649.437 266.85C649.427 266.876 649.421 266.903 649.421 266.931Z" fill="#CCA244"/>
<path d="M841.592 284.373C840.932 283.707 839.698 282.177 837.892 279.783C830.142 269.483 822.012 266.813 809.062 266.623C801.602 266.51 792.905 266.483 782.972 266.543C782.828 266.543 782.691 266.6 782.59 266.702C782.488 266.803 782.432 266.94 782.432 267.083V317.453C782.432 317.57 782.478 317.682 782.56 317.765C782.643 317.847 782.755 317.893 782.872 317.893C796.558 317.907 804.732 317.837 807.392 317.683C816.582 317.153 821.882 310.933 825.512 303.333C825.592 303.165 825.71 303.017 825.856 302.902C826.001 302.786 826.17 302.706 826.348 302.669C826.526 302.632 826.709 302.638 826.88 302.688C827.051 302.737 827.206 302.828 827.332 302.953C827.518 303.14 827.612 303.593 827.612 304.313C827.558 314.52 827.568 325.837 827.642 338.263C827.641 338.387 827.603 338.503 827.532 338.593C827.438 338.713 827.385 338.777 827.372 338.783C827.238 338.889 827.083 338.963 826.917 339.002C826.752 339.041 826.58 339.044 826.413 339.009C826.246 338.975 826.089 338.905 825.953 338.804C825.816 338.703 825.703 338.573 825.622 338.423C821.472 330.833 816.572 324.263 807.082 323.933C800.928 323.72 793.018 323.627 783.352 323.653C783.176 323.656 783.008 323.728 782.884 323.853C782.761 323.979 782.692 324.147 782.692 324.323L783.332 376.523C783.334 376.756 783.428 376.978 783.592 377.143C783.757 377.307 783.979 377.401 784.212 377.403C789.645 377.49 796.578 377.517 805.012 377.483C806.892 377.477 809.342 377.28 812.362 376.893C818.152 376.163 824.402 375.923 829.752 374.143C839.452 370.903 843.882 363.203 848.682 354.123C848.762 353.97 848.935 353.79 849.202 353.583C849.928 353.023 850.535 353.093 851.022 353.793C851.125 353.943 851.178 354.122 851.172 354.303L849.872 382.493C849.859 382.752 849.748 382.997 849.562 383.175C849.375 383.354 849.128 383.454 848.872 383.453C788.045 383.467 757.238 383.45 756.452 383.403C754.918 383.323 754.122 383.273 754.062 383.253C753.886 383.208 753.73 383.108 753.616 382.967C753.502 382.827 753.436 382.654 753.427 382.473C753.418 382.292 753.467 382.113 753.567 381.962C753.666 381.811 753.812 381.696 753.982 381.633C761.902 378.783 762.542 372.793 762.672 365.323C763.245 331.33 763.185 301.51 762.492 275.863C762.338 269.99 759.672 265.72 754.492 263.053C754.058 262.827 753.725 262.497 753.492 262.063C753.448 261.981 753.427 261.889 753.43 261.796C753.433 261.703 753.46 261.612 753.509 261.533C753.557 261.454 753.625 261.388 753.706 261.342C753.787 261.297 753.879 261.273 753.972 261.273H841.232C841.594 261.273 841.942 261.417 842.2 261.674C842.459 261.93 842.606 262.278 842.612 262.643L842.872 283.843C842.871 283.992 842.827 284.137 842.745 284.26C842.663 284.383 842.545 284.479 842.408 284.536C842.271 284.592 842.121 284.607 841.975 284.578C841.83 284.55 841.696 284.478 841.592 284.373Z" fill="#CCA244"/>
<path d="M968.013 354.121C968.226 354.768 968.256 355.768 968.103 357.121C967.13 365.628 966.65 374.035 966.663 382.341C966.662 382.572 966.577 382.795 966.424 382.967C966.271 383.138 966.06 383.247 965.833 383.271C964.593 383.405 963.136 383.471 961.463 383.471C912.503 383.458 882.68 383.461 871.993 383.481C871.34 383.481 870.753 383.408 870.233 383.261C870.064 383.212 869.915 383.112 869.806 382.974C869.696 382.837 869.632 382.669 869.622 382.493C869.613 382.318 869.657 382.143 869.751 381.994C869.844 381.846 869.981 381.729 870.143 381.661C878.703 378.181 879.393 370.401 879.453 362.251C879.633 334.085 879.603 305.778 879.363 277.331C879.31 270.758 876.47 265.818 870.843 262.511C870.717 262.438 870.619 262.325 870.564 262.19C870.509 262.055 870.501 261.906 870.539 261.765C870.578 261.625 870.662 261.501 870.779 261.414C870.895 261.326 871.037 261.28 871.183 261.281H959.833C960.052 261.281 960.262 261.366 960.42 261.519C960.578 261.672 960.673 261.88 960.683 262.101C961.05 271.601 961.173 278.615 961.053 283.141C961.04 283.615 960.986 283.958 960.893 284.171C960.823 284.327 960.713 284.462 960.575 284.562C960.436 284.661 960.274 284.723 960.105 284.739C959.936 284.755 959.766 284.726 959.612 284.654C959.459 284.583 959.328 284.471 959.233 284.331C953.883 276.471 948.223 269.831 938.423 267.931C934.65 267.198 931.326 266.788 928.453 266.701C925.293 266.601 915.736 266.535 899.783 266.501C899.68 266.5 899.578 266.519 899.483 266.559C899.388 266.598 899.301 266.656 899.228 266.73C899.156 266.803 899.098 266.891 899.06 266.987C899.021 267.084 899.002 267.187 899.003 267.291L899.613 317.381C899.616 317.504 899.665 317.621 899.751 317.707C899.837 317.793 899.953 317.841 900.073 317.841C910.16 317.821 917.706 317.808 922.713 317.801C932.923 317.791 938.663 311.751 942.833 303.331C942.907 303.185 943.021 303.063 943.164 302.981C943.306 302.899 943.469 302.86 943.632 302.87C943.796 302.879 943.954 302.937 944.085 303.035C944.217 303.133 944.317 303.267 944.373 303.421C944.5 303.781 944.566 304.258 944.573 304.851C944.606 321.465 944.576 332.388 944.483 337.621C944.476 337.921 944.34 338.285 944.073 338.711C943.995 338.832 943.889 338.932 943.763 339.001C943.637 339.07 943.496 339.106 943.353 339.106C943.21 339.106 943.07 339.07 942.946 339.001C942.822 338.932 942.718 338.832 942.643 338.711C939.113 333.091 936.793 326.941 929.453 324.831C927.073 324.151 923.323 323.805 918.203 323.791C913.956 323.778 907.966 323.748 900.233 323.701C900.128 323.701 900.025 323.722 899.928 323.762C899.832 323.803 899.744 323.862 899.671 323.936C899.597 324.011 899.539 324.099 899.5 324.196C899.461 324.293 899.442 324.397 899.443 324.501L900.083 376.651C900.085 376.827 900.156 376.996 900.281 377.123C900.405 377.249 900.574 377.324 900.753 377.331C912.926 377.805 924.743 377.405 936.203 376.131C946.333 375.011 954.703 371.851 960.133 362.781C962.693 358.488 964.4 355.528 965.253 353.901C965.392 353.64 965.604 353.425 965.863 353.282C966.123 353.14 966.418 353.077 966.712 353.1C967.006 353.123 967.286 353.233 967.517 353.414C967.749 353.596 967.921 353.842 968.013 354.121Z" fill="#CCA244"/>
<path d="M31.7138 383.363C21.9138 383.59 12.8138 383.606 4.41379 383.413C3.06712 383.38 2.05711 383.269 1.38378 383.083C1.27625 383.05 1.18154 382.985 1.11283 382.896C1.04411 382.807 1.00482 382.699 1.00041 382.587C0.996013 382.475 1.02673 382.364 1.08827 382.27C1.14982 382.176 1.23913 382.104 1.34378 382.063C8.54378 379.413 12.4338 374.103 15.0938 366.933C20.1938 353.193 32.0038 323.413 50.5238 277.593C51.8638 274.266 51.5571 270.973 49.6038 267.713C47.5238 264.253 45.3138 263.923 42.7238 262.033C42.6629 261.988 42.6177 261.925 42.5945 261.853C42.5713 261.781 42.5713 261.704 42.5945 261.632C42.6177 261.56 42.663 261.497 42.7239 261.453C42.7848 261.408 42.8582 261.384 42.9338 261.383H69.2838C69.7298 261.382 70.1654 261.519 70.532 261.775C70.8985 262.03 71.1784 262.393 71.3338 262.813C79.5738 285.423 86.4438 304.653 93.8038 323.353C100.104 339.366 104.87 351.686 108.104 360.313C111.804 370.173 115.624 377.513 124.594 381.853C124.807 381.96 124.924 382.176 124.944 382.503C124.949 382.629 124.93 382.755 124.887 382.873C124.845 382.991 124.779 383.099 124.695 383.19C124.611 383.282 124.51 383.355 124.398 383.405C124.287 383.455 124.166 383.482 124.044 383.483C122.13 383.49 110.537 383.483 89.2638 383.463C86.8838 383.456 85.0371 383.38 83.7238 383.233C83.5957 383.22 83.4753 383.167 83.3794 383.082C83.2834 382.996 83.2165 382.883 83.188 382.756C83.1595 382.63 83.1707 382.498 83.2201 382.377C83.2695 382.256 83.3546 382.154 83.4638 382.083C87.2538 379.693 90.2638 377.073 90.0138 372.003C89.9604 371.003 89.1305 368.419 87.5238 364.253C85.9571 360.193 83.2638 353.169 79.4438 343.183C79.347 342.933 79.1767 342.717 78.9554 342.566C78.7341 342.414 78.4721 342.333 78.2038 342.333H31.9938C31.7806 342.333 31.5728 342.4 31.399 342.523C31.2253 342.647 31.0942 342.822 31.0238 343.023C29.6438 346.989 27.3338 352.963 24.0938 360.943C22.4204 365.049 21.6738 368.179 21.8538 370.333C22.1404 373.759 23.6304 376.616 26.3238 378.903C28.0138 380.343 30.3138 381.213 32.0038 382.423C32.0914 382.487 32.1568 382.576 32.191 382.679C32.2252 382.782 32.2264 382.893 32.1944 382.996C32.1625 383.1 32.099 383.191 32.0128 383.257C31.9266 383.322 31.8221 383.359 31.7138 383.363ZM56.4038 281.503C56.3788 281.437 56.3348 281.381 56.2775 281.341C56.2202 281.301 56.1521 281.279 56.0822 281.278C56.0122 281.277 55.9435 281.296 55.885 281.335C55.8264 281.373 55.7807 281.428 55.7538 281.493L33.7038 335.833C33.6827 335.886 33.6747 335.943 33.6806 335.999C33.6865 336.056 33.706 336.11 33.7375 336.157C33.769 336.204 33.8115 336.243 33.8614 336.27C33.9113 336.297 33.967 336.312 34.0238 336.313H76.3338C76.3893 336.311 76.4438 336.297 76.4925 336.27C76.5413 336.244 76.5831 336.206 76.6143 336.16C76.6456 336.114 76.6655 336.061 76.6724 336.006C76.6792 335.951 76.6728 335.895 76.6538 335.843L56.4038 281.503Z" fill="#CCA244"/>
<path d="M235.315 350.153C235.363 350.214 235.429 350.258 235.504 350.279C235.579 350.301 235.658 350.298 235.731 350.271C235.804 350.245 235.867 350.196 235.911 350.131C235.954 350.067 235.977 349.991 235.975 349.913C236.035 323.543 236.615 300.073 235.185 275.853C234.865 270.406 232.381 266.476 227.735 264.063C227.608 263.996 226.398 263.466 224.105 262.473C224.013 262.433 223.933 262.371 223.872 262.292C223.811 262.213 223.771 262.12 223.755 262.021C223.739 261.922 223.748 261.819 223.781 261.724C223.814 261.628 223.87 261.542 223.945 261.473C224.238 261.206 224.575 261.076 224.955 261.083C235.628 261.283 244.621 261.283 251.935 261.083C252.275 261.07 252.501 261.186 252.615 261.433C252.678 261.568 252.713 261.715 252.716 261.864C252.719 262.014 252.691 262.161 252.633 262.298C252.575 262.434 252.49 262.556 252.381 262.655C252.273 262.754 252.144 262.829 252.005 262.873C246.431 264.62 243.255 268.526 242.475 274.593C242.101 277.546 241.901 281.626 241.875 286.833C241.828 297.813 241.771 314.703 241.705 337.503C241.678 346.35 241.728 353.073 241.855 357.673C242.185 369.513 242.765 376.673 242.025 382.443C241.998 382.639 241.912 382.822 241.778 382.967C241.643 383.112 241.468 383.212 241.275 383.253C238.415 383.873 236.835 383.653 234.905 381.103C231.645 376.79 226.488 370.516 219.435 362.283C215.121 357.256 209.925 351.033 203.845 343.613C187.551 323.726 171.668 304.43 156.195 285.723C156.141 285.658 156.069 285.612 155.988 285.59C155.907 285.568 155.821 285.572 155.742 285.602C155.662 285.631 155.593 285.684 155.544 285.754C155.494 285.824 155.466 285.908 155.465 285.993C155.451 296.76 155.461 323.206 155.495 365.333C155.495 372.333 158.315 379.463 165.735 381.743C166.348 381.93 166.735 382.223 166.895 382.623C166.93 382.716 166.943 382.815 166.932 382.914C166.92 383.012 166.885 383.107 166.829 383.188C166.772 383.27 166.697 383.337 166.609 383.383C166.522 383.429 166.424 383.453 166.325 383.453H139.195C139.086 383.452 138.98 383.421 138.887 383.364C138.795 383.306 138.721 383.224 138.672 383.127C138.623 383.03 138.602 382.921 138.612 382.813C138.621 382.704 138.66 382.601 138.725 382.513C138.958 382.206 139.301 381.95 139.755 381.743C149.805 377.163 149.315 367.503 149.325 357.583C149.351 330.883 149.308 303.966 149.195 276.833C149.165 270.563 143.845 265.023 138.425 262.573C138.299 262.513 138.196 262.413 138.135 262.288C138.073 262.163 138.055 262.021 138.084 261.884C138.113 261.748 138.187 261.625 138.294 261.536C138.401 261.447 138.535 261.397 138.675 261.393L161.015 261.303C161.074 261.303 161.135 261.313 161.195 261.333C162.348 261.713 163.445 262.543 164.485 263.823C193.505 299.423 211.485 321.553 235.315 350.153Z" fill="#CCA244"/>
<path d="M479.423 383.033C479.36 383.006 479.306 382.962 479.267 382.906C479.227 382.85 479.204 382.784 479.2 382.715C479.196 382.647 479.211 382.579 479.243 382.518C479.276 382.458 479.324 382.408 479.383 382.373L485.793 378.473C485.84 378.447 485.883 378.416 485.923 378.383C488.563 375.91 490.587 372.906 491.993 369.373C504.353 338.233 516.033 310.053 530.393 273.483C530.625 272.892 530.621 272.234 530.383 271.643C528.937 268.056 526.417 265.06 522.823 262.653C522.297 262.3 522.217 261.866 522.583 261.353C522.614 261.31 522.656 261.276 522.704 261.253C522.753 261.231 522.808 261.22 522.863 261.223L548.193 261.513C548.529 261.518 548.855 261.625 549.13 261.82C549.405 262.014 549.615 262.287 549.733 262.603C560.607 292.243 567.337 310.336 569.923 316.883C577.843 336.943 584.073 352.793 588.613 364.433C591.893 372.833 595.023 378.243 602.393 382.113C602.537 382.185 602.652 382.303 602.718 382.449C602.785 382.595 602.8 382.759 602.76 382.915C602.721 383.072 602.63 383.211 602.501 383.31C602.373 383.41 602.215 383.464 602.053 383.463H561.423C561.253 383.463 561.086 383.407 560.95 383.304C560.814 383.2 560.716 383.055 560.671 382.891C560.625 382.726 560.635 382.551 560.699 382.392C560.763 382.234 560.877 382.101 561.023 382.013C566.443 378.803 569.813 375.633 567.623 368.663C564.863 359.863 561.163 351.163 558.133 342.933C558.075 342.77 557.967 342.628 557.822 342.528C557.677 342.428 557.503 342.374 557.323 342.373H510.803C510.562 342.373 510.325 342.442 510.121 342.574C509.917 342.705 509.755 342.892 509.653 343.113C507.007 348.907 504.443 355.066 501.963 361.593C498.953 369.553 499.413 377.123 507.993 381.083C508.727 381.423 509.24 381.93 509.533 382.603C509.571 382.691 509.586 382.787 509.577 382.882C509.569 382.977 509.536 383.069 509.483 383.149C509.429 383.229 509.357 383.295 509.271 383.341C509.186 383.387 509.09 383.412 508.993 383.413C492.447 383.453 483.247 383.463 481.393 383.443C480.667 383.436 480.01 383.3 479.423 383.033ZM535.193 281.683C535.158 281.589 535.094 281.509 535.012 281.451C534.93 281.394 534.832 281.363 534.732 281.362C534.631 281.361 534.533 281.39 534.45 281.445C534.366 281.501 534.301 281.58 534.263 281.673L512.373 335.613C512.342 335.689 512.33 335.771 512.338 335.853C512.346 335.934 512.374 336.012 512.42 336.081C512.465 336.149 512.527 336.205 512.599 336.243C512.671 336.282 512.751 336.303 512.833 336.303H554.823C554.904 336.303 554.983 336.284 555.054 336.247C555.125 336.21 555.186 336.156 555.232 336.09C555.279 336.025 555.308 335.949 555.319 335.869C555.329 335.79 555.321 335.709 555.293 335.633L535.193 281.683Z" fill="#CCA244"/>
<path d="M294.854 474.422C291.601 474.429 288.318 474.429 285.004 474.422C284.639 474.421 284.282 474.532 283.981 474.741C283.681 474.951 283.452 475.248 283.324 475.592L280.114 484.302C279.937 484.783 279.616 485.197 279.196 485.49C278.776 485.784 278.277 485.941 277.764 485.942L271.684 485.962C271.538 485.962 271.395 485.925 271.266 485.856C271.137 485.787 271.027 485.687 270.946 485.566C270.865 485.444 270.815 485.305 270.801 485.159C270.787 485.014 270.809 484.867 270.864 484.732L290.414 438.092C290.501 437.889 290.643 437.713 290.822 437.585C291.002 437.456 291.214 437.379 291.434 437.362C292.521 437.282 293.631 437.242 294.764 437.242C295.898 437.242 297.004 437.275 298.084 437.342C298.308 437.355 298.524 437.431 298.708 437.56C298.892 437.689 299.036 437.866 299.124 438.072L318.904 484.612C318.96 484.747 318.982 484.894 318.968 485.039C318.953 485.185 318.903 485.324 318.822 485.446C318.741 485.567 318.632 485.667 318.503 485.736C318.374 485.805 318.23 485.842 318.084 485.842L312.004 485.862C311.493 485.862 310.994 485.706 310.575 485.415C310.155 485.123 309.834 484.711 309.654 484.232L306.394 475.532C306.265 475.188 306.033 474.892 305.731 474.684C305.429 474.477 305.07 474.368 304.704 474.372C301.398 474.399 298.114 474.415 294.854 474.422ZM286.814 466.452C286.793 466.503 286.785 466.559 286.79 466.615C286.795 466.67 286.814 466.723 286.845 466.769C286.875 466.816 286.917 466.854 286.966 466.881C287.014 466.907 287.069 466.921 287.124 466.922L302.324 466.902C302.381 466.903 302.437 466.89 302.487 466.864C302.537 466.838 302.58 466.8 302.611 466.754C302.643 466.707 302.663 466.653 302.668 466.597C302.674 466.541 302.666 466.484 302.644 466.432L295.004 448.112C294.979 448.05 294.935 447.996 294.879 447.958C294.823 447.92 294.757 447.9 294.689 447.9C294.622 447.9 294.556 447.92 294.5 447.958C294.443 447.996 294.4 448.05 294.374 448.112L286.814 466.452Z" fill="#CCA244"/>
<path d="M506.242 437.262C507.376 437.262 508.482 437.298 509.562 437.372C509.785 437.387 509.998 437.463 510.18 437.592C510.362 437.72 510.504 437.897 510.592 438.102L530.262 484.622C530.318 484.757 530.34 484.903 530.326 485.049C530.311 485.194 530.261 485.334 530.18 485.455C530.099 485.577 529.99 485.677 529.861 485.746C529.732 485.815 529.588 485.851 529.442 485.852H523.372C522.861 485.852 522.362 485.695 521.942 485.404C521.523 485.113 521.202 484.7 521.022 484.222L517.782 475.532C517.654 475.189 517.423 474.894 517.123 474.687C516.823 474.479 516.466 474.369 516.102 474.372C512.796 474.385 509.516 474.395 506.262 474.402C503.009 474.402 499.732 474.395 496.432 474.382C496.068 474.379 495.712 474.489 495.412 474.697C495.111 474.904 494.881 475.199 494.752 475.542L491.522 484.242C491.343 484.72 491.022 485.133 490.602 485.424C490.182 485.715 489.683 485.872 489.172 485.872L483.102 485.882C482.956 485.881 482.812 485.845 482.684 485.776C482.555 485.707 482.445 485.607 482.364 485.485C482.283 485.364 482.233 485.224 482.219 485.079C482.205 484.933 482.227 484.787 482.282 484.652L501.892 438.112C501.979 437.905 502.121 437.727 502.303 437.596C502.484 437.465 502.699 437.388 502.922 437.372C504.002 437.298 505.109 437.262 506.242 437.262ZM498.342 466.382C498.316 466.446 498.306 466.515 498.313 466.584C498.32 466.653 498.344 466.719 498.382 466.776C498.421 466.833 498.473 466.88 498.534 466.913C498.595 466.945 498.663 466.962 498.732 466.962L513.702 466.882C513.772 466.881 513.84 466.863 513.901 466.829C513.962 466.796 514.014 466.748 514.051 466.689C514.089 466.631 514.112 466.564 514.117 466.494C514.122 466.425 514.111 466.355 514.082 466.292L506.502 448.752C506.47 448.677 506.416 448.613 506.347 448.568C506.279 448.523 506.199 448.5 506.117 448.5C506.036 448.5 505.956 448.523 505.887 448.568C505.819 448.613 505.765 448.677 505.732 448.752L498.342 466.382Z" fill="#CCA244"/>
<path d="M683.645 474.271C680.412 474.271 677.152 474.264 673.865 474.251C673.504 474.247 673.151 474.355 672.852 474.561C672.553 474.767 672.324 475.06 672.195 475.401L668.985 484.041C668.807 484.518 668.488 484.929 668.069 485.218C667.651 485.508 667.154 485.662 666.645 485.661H660.615C660.469 485.662 660.325 485.628 660.196 485.56C660.068 485.492 659.957 485.393 659.876 485.272C659.795 485.151 659.745 485.012 659.731 484.867C659.717 484.722 659.739 484.575 659.795 484.441L679.335 438.211C679.422 438.006 679.564 437.829 679.746 437.7C679.928 437.571 680.142 437.495 680.365 437.481C681.438 437.408 682.538 437.371 683.665 437.371C684.785 437.371 685.885 437.408 686.965 437.481C687.186 437.497 687.398 437.573 687.578 437.702C687.758 437.831 687.899 438.007 687.985 438.211L707.475 484.461C707.531 484.595 707.553 484.74 707.539 484.884C707.526 485.029 707.477 485.167 707.396 485.288C707.316 485.409 707.208 485.508 707.08 485.576C706.952 485.645 706.81 485.681 706.665 485.681L700.635 485.671C700.126 485.672 699.629 485.518 699.211 485.228C698.792 484.939 698.473 484.528 698.295 484.051L695.085 475.411C694.956 475.07 694.727 474.777 694.428 474.571C694.129 474.365 693.776 474.257 693.415 474.261C690.135 474.274 686.878 474.278 683.645 474.271ZM675.695 466.471C675.674 466.522 675.665 466.578 675.671 466.633C675.676 466.689 675.695 466.742 675.725 466.788C675.756 466.835 675.797 466.873 675.846 466.899C675.895 466.926 675.949 466.94 676.005 466.941L691.045 466.861C691.101 466.862 691.157 466.849 691.207 466.823C691.257 466.797 691.3 466.759 691.332 466.712C691.364 466.666 691.383 466.612 691.389 466.556C691.395 466.5 691.386 466.443 691.365 466.391L683.745 448.271C683.719 448.208 683.676 448.155 683.62 448.117C683.564 448.079 683.498 448.059 683.43 448.059C683.362 448.059 683.296 448.079 683.24 448.117C683.184 448.155 683.14 448.208 683.115 448.271L675.695 466.471Z" fill="#CCA244"/>
<path d="M608.594 473.95C608.874 473.667 609.25 473.497 609.649 473.475C610.048 473.453 610.442 473.58 610.754 473.83C615.568 477.69 621.198 479.177 627.644 478.29C631.384 477.78 634.104 473.82 632.094 470.33C631.661 469.584 630.668 468.73 629.114 467.77C628.869 467.624 628.61 467.51 628.344 467.43C623.084 465.86 609.674 463.94 607.254 457.06C604.634 449.61 606.854 441.48 615.054 438.96C622.741 436.6 630.398 437.637 638.024 442.07C638.267 442.212 638.474 442.409 638.629 442.643C638.785 442.878 638.884 443.145 638.92 443.424C638.955 443.704 638.927 443.987 638.836 444.253C638.745 444.52 638.594 444.761 638.394 444.96L635.054 448.3C634.791 448.564 634.452 448.737 634.085 448.795C633.718 448.852 633.343 448.791 633.014 448.62C630.984 447.57 629.254 446.46 627.264 446C623.704 445.16 617.754 444.38 615.554 447.9C611.644 454.17 618.924 456.6 623.814 457.76C628.954 458.97 636.754 461.02 639.444 465.8C642.254 470.8 641.484 477.06 637.724 481.43C634.254 485.46 625.824 486.71 620.774 486.07C614.981 485.337 609.824 483.357 605.304 480.13C605.096 479.982 604.923 479.789 604.796 479.567C604.67 479.344 604.593 479.097 604.572 478.841C604.551 478.586 604.586 478.33 604.675 478.089C604.763 477.849 604.903 477.631 605.084 477.45L608.594 473.95Z" fill="#CCA244"/>
<path d="M768.365 459.823C768.471 466.07 768.451 471.933 768.305 477.413C768.271 478.666 767.601 479.756 766.295 480.683C757.205 487.113 744.455 488.373 734.885 482.643C724.735 476.553 722.125 462.113 726.765 451.543C729.651 444.97 734.755 440.656 742.075 438.603C749.665 436.483 758.945 438.183 765.095 442.593C765.344 442.774 765.552 443.006 765.703 443.275C765.854 443.543 765.945 443.841 765.97 444.148C765.994 444.455 765.952 444.764 765.846 445.053C765.74 445.342 765.572 445.605 765.355 445.823L762.525 448.653C762.125 449.051 761.595 449.293 761.033 449.333C760.471 449.373 759.915 449.21 759.465 448.873C752.205 443.453 742.505 444.063 736.735 451.403C732.835 456.373 732.315 465.973 735.665 471.353C740.805 479.633 751.895 480.403 759.685 475.773C759.891 475.655 760.062 475.483 760.18 475.276C760.298 475.068 760.358 474.832 760.355 474.593L760.265 467.213C760.263 467.116 760.243 467.02 760.205 466.931C760.166 466.841 760.11 466.76 760.041 466.693C759.971 466.625 759.889 466.571 759.799 466.535C759.708 466.5 759.612 466.482 759.515 466.483L749.645 466.603C749.536 466.604 749.427 466.584 749.326 466.544C749.225 466.503 749.133 466.443 749.055 466.367C748.977 466.291 748.915 466.2 748.872 466.1C748.829 466 748.806 465.892 748.805 465.783L748.735 460.083C748.733 459.975 748.753 459.868 748.792 459.768C748.832 459.668 748.891 459.577 748.965 459.5C749.039 459.423 749.128 459.362 749.225 459.319C749.323 459.277 749.428 459.254 749.535 459.253L767.545 459.033C767.758 459.03 767.963 459.112 768.117 459.26C768.27 459.408 768.359 459.61 768.365 459.823Z" fill="#CCA244"/>
<path d="M548.611 477.543L552.011 474.144C552.318 473.838 552.726 473.655 553.157 473.629C553.589 473.603 554.014 473.736 554.352 474.004C558.558 477.304 563.635 478.797 569.581 478.483C571.661 478.373 575.371 477.123 575.891 474.663C576.305 472.717 576.108 471.197 575.301 470.103C572.391 466.133 564.131 466.003 559.421 463.833C558.061 463.213 555.541 462.383 553.771 461.063C550.718 458.77 549.368 455.27 549.722 450.563C550.882 434.813 571.432 435.953 580.842 441.663C581.068 441.8 581.264 441.981 581.419 442.195C581.575 442.409 581.685 442.652 581.745 442.911C581.805 443.169 581.812 443.436 581.767 443.698C581.721 443.96 581.625 444.21 581.482 444.433L579.441 447.613C579.118 448.121 578.611 448.484 578.026 448.628C577.441 448.771 576.823 448.684 576.301 448.384C572.041 445.904 565.172 443.863 560.782 446.303C557.812 447.953 557.831 451.243 559.321 454.053C559.485 454.369 559.726 454.64 560.021 454.843C561.448 455.81 563.198 456.543 565.271 457.043C574.731 459.293 586.151 461.833 583.861 474.773C583.115 478.973 581.072 481.983 577.732 483.803C568.922 488.583 556.641 485.693 548.801 479.993C548.613 479.857 548.456 479.681 548.342 479.478C548.228 479.275 548.16 479.049 548.142 478.816C548.123 478.583 548.156 478.349 548.237 478.129C548.318 477.909 548.446 477.709 548.611 477.543Z" fill="#CCA244"/>
<path d="M165.655 438.203C171.762 438.149 177.835 438.146 183.875 438.193C184.136 438.195 184.385 438.301 184.568 438.486C184.752 438.672 184.855 438.922 184.855 439.183V444.593C184.855 444.864 184.748 445.125 184.557 445.318C184.366 445.511 184.106 445.62 183.835 445.623L169.955 445.793C169.848 445.795 169.746 445.839 169.671 445.914C169.597 445.988 169.555 446.088 169.555 446.193L170.035 484.873C170.036 484.982 170.015 485.091 169.973 485.192C169.931 485.293 169.869 485.384 169.79 485.46C169.712 485.536 169.618 485.595 169.516 485.633C169.413 485.671 169.304 485.688 169.195 485.683C167.575 485.596 166.455 485.556 165.835 485.563C165.215 485.563 164.098 485.609 162.485 485.703C162.376 485.71 162.266 485.694 162.163 485.657C162.06 485.62 161.966 485.562 161.887 485.487C161.807 485.412 161.743 485.321 161.7 485.221C161.657 485.121 161.635 485.012 161.635 484.903L161.825 446.223C161.825 446.117 161.782 446.015 161.705 445.94C161.628 445.865 161.524 445.823 161.415 445.823L147.535 445.763C147.263 445.763 147.003 445.656 146.81 445.465C146.617 445.274 146.508 445.014 146.505 444.743L146.465 439.333C146.464 439.203 146.488 439.074 146.536 438.953C146.585 438.833 146.657 438.723 146.748 438.63C146.839 438.537 146.947 438.463 147.067 438.412C147.186 438.361 147.315 438.334 147.445 438.333C153.485 438.239 159.555 438.196 165.655 438.203Z" fill="#CCA244"/>
<path d="M216.364 485.643L209.744 485.723C209.646 485.724 209.548 485.706 209.456 485.67C209.365 485.633 209.281 485.579 209.211 485.51C209.14 485.442 209.084 485.36 209.045 485.269C209.006 485.179 208.985 485.082 208.984 484.983L208.414 438.963C208.413 438.864 208.431 438.765 208.468 438.673C208.505 438.581 208.56 438.497 208.63 438.426C208.7 438.356 208.783 438.299 208.875 438.261C208.966 438.223 209.065 438.203 209.164 438.203H216.134C216.331 438.203 216.521 438.281 216.661 438.419C216.801 438.558 216.882 438.746 216.884 438.943L217.104 457.133C217.105 457.232 217.126 457.329 217.165 457.419C217.204 457.51 217.26 457.592 217.331 457.661C217.401 457.729 217.485 457.783 217.576 457.82C217.668 457.856 217.766 457.874 217.864 457.873L237.814 457.623C238.011 457.621 238.2 457.54 238.338 457.4C238.477 457.26 238.554 457.07 238.554 456.873V438.953C238.554 438.754 238.633 438.564 238.774 438.423C238.914 438.282 239.105 438.203 239.304 438.203H246.084C246.281 438.203 246.471 438.281 246.611 438.419C246.751 438.558 246.832 438.746 246.834 438.943L247.394 484.833C247.395 484.932 247.377 485.031 247.34 485.123C247.303 485.215 247.248 485.299 247.178 485.37C247.108 485.441 247.025 485.497 246.933 485.535C246.842 485.573 246.743 485.593 246.644 485.593H239.384C239.185 485.593 238.994 485.514 238.854 485.373C238.713 485.233 238.634 485.042 238.634 484.843V466.343C238.634 466.144 238.555 465.953 238.414 465.813C238.274 465.672 238.083 465.593 237.884 465.593H217.854C217.655 465.593 217.464 465.672 217.324 465.813C217.183 465.953 217.104 466.144 217.104 466.343V484.893C217.104 485.09 217.027 485.28 216.888 485.42C216.75 485.56 216.561 485.641 216.364 485.643Z" fill="#CCA244"/>
<path d="M349.594 438.096L343.314 438.172C342.629 438.181 342.081 438.743 342.089 439.427L342.64 484.524C342.649 485.209 343.211 485.757 343.895 485.749L350.175 485.672C350.86 485.664 351.408 485.102 351.4 484.417L350.849 439.32C350.84 438.636 350.278 438.087 349.594 438.096Z" fill="#CCA244"/>
<path d="M422.141 485.533L414.961 485.633C414.871 485.633 414.785 485.597 414.721 485.533C414.657 485.47 414.621 485.383 414.621 485.293L414.031 438.503C414.031 438.413 414.067 438.326 414.131 438.263C414.195 438.199 414.281 438.163 414.371 438.163H422.981C423.039 438.163 423.096 438.177 423.147 438.205C423.198 438.233 423.241 438.274 423.271 438.323L436.711 459.603C436.742 459.653 436.784 459.694 436.835 459.722C436.886 459.751 436.943 459.766 437.001 459.766C437.059 459.766 437.117 459.751 437.167 459.722C437.218 459.694 437.261 459.653 437.291 459.603L450.971 438.203C451.002 438.154 451.045 438.113 451.095 438.085C451.146 438.057 451.203 438.043 451.261 438.043H459.761C459.851 438.043 459.938 438.079 460.002 438.143C460.065 438.206 460.101 438.293 460.101 438.383V485.223C460.101 485.313 460.065 485.4 460.002 485.463C459.938 485.527 459.851 485.563 459.761 485.563L452.251 485.663C452.161 485.663 452.075 485.627 452.011 485.563C451.947 485.5 451.911 485.413 451.911 485.323V451.943C451.912 451.869 451.888 451.796 451.843 451.737C451.799 451.677 451.736 451.634 451.665 451.614C451.593 451.593 451.517 451.597 451.448 451.624C451.379 451.651 451.32 451.7 451.281 451.763L437.151 473.873C437.121 473.923 437.078 473.964 437.027 473.992C436.977 474.021 436.919 474.036 436.861 474.036C436.803 474.036 436.746 474.021 436.695 473.992C436.644 473.964 436.602 473.923 436.571 473.873L423.111 452.543C423.072 452.479 423.013 452.429 422.942 452.402C422.872 452.376 422.795 452.373 422.723 452.395C422.651 452.416 422.588 452.461 422.544 452.523C422.501 452.584 422.478 452.658 422.481 452.733V485.193C422.481 485.283 422.445 485.37 422.382 485.433C422.318 485.497 422.231 485.533 422.141 485.533Z" fill="#CCA244"/>
<path d="M793.184 438.191H826.154C826.267 438.191 826.379 438.214 826.483 438.257C826.588 438.3 826.682 438.364 826.762 438.443C826.842 438.523 826.906 438.618 826.949 438.722C826.992 438.827 827.014 438.938 827.014 439.051V445.021C827.014 445.249 826.924 445.468 826.762 445.63C826.601 445.791 826.382 445.881 826.154 445.881H801.624C801.511 445.881 801.399 445.904 801.295 445.947C801.191 445.99 801.096 446.053 801.016 446.133C800.936 446.213 800.873 446.308 800.83 446.412C800.786 446.517 800.764 446.629 800.764 446.741V456.991C800.764 457.22 800.855 457.438 801.016 457.599C801.177 457.761 801.396 457.851 801.624 457.851H823.124C823.352 457.851 823.571 457.942 823.732 458.103C823.894 458.265 823.984 458.483 823.984 458.711V464.741C823.984 464.97 823.894 465.188 823.732 465.349C823.571 465.511 823.352 465.601 823.124 465.601H801.824C801.596 465.601 801.377 465.692 801.216 465.853C801.055 466.015 800.964 466.233 800.964 466.461V476.751C800.964 476.98 801.055 477.198 801.216 477.359C801.377 477.521 801.596 477.611 801.824 477.611H826.964C827.192 477.611 827.411 477.702 827.572 477.863C827.734 478.025 827.824 478.243 827.824 478.471V484.671C827.824 484.899 827.734 485.118 827.572 485.28C827.411 485.441 827.192 485.531 826.964 485.531H793.184C792.956 485.531 792.737 485.441 792.576 485.28C792.415 485.118 792.324 484.899 792.324 484.671V439.051C792.324 438.938 792.346 438.827 792.39 438.722C792.433 438.618 792.496 438.523 792.576 438.443C792.656 438.364 792.751 438.3 792.855 438.257C792.959 438.214 793.071 438.191 793.184 438.191Z" fill="#CCA244"/>
</svg>
