<svg xmlns="http://www.w3.org/2000/svg" version="1.1" xmlns:xlink="http://www.w3.org/1999/xlink" width="512" height="512" x="0" y="0" viewBox="0 0 512 512" style="enable-background:new 0 0 512 512" xml:space="preserve" class=""><g><path d="M265.55 7.89 256 0l-9.55 7.89C204.96 42.153 181 105.134 181 158.735c0 53.887 23.855 104.493 65.45 138.844l9.55 7.89 9.55-7.89C307.146 263.227 331 212.621 331 158.734c0-53.593-23.953-116.578-65.45-150.843zm0 0" fill="#c4ab69" opacity="1" data-original="#000000" class=""></path><path d="M186.281 275.234C163.11 241.063 151 201.574 151 158.734c0-46.16 12.078-83.332 27.48-111.96-30.277-22.567-56.8-28.036-63.878-30.848-1.286 4.094-51.54 73.746-15.91 164.02 16.167 40.968 46.57 75.14 87.59 95.288zM325.71 275.195c41.02-20.14 71.43-54.28 87.599-95.25 35.664-90.36-14.579-159.777-15.91-164.02-6.938 2.755-33.68 8.302-63.938 30.9C348.879 75.464 361 112.644 361 158.734c0 43.308-12.422 82.71-35.29 116.46zm0 0" fill="#c4ab69" opacity="1" data-original="#000000" class=""></path><path d="M70.781 190.965a211.7 211.7 0 0 1-7.992-24.54C27.621 171.916 6.793 185.16 0 188.005c2.2 4.074 16.016 85.047 103.488 123.02 36.653 15.898 78.575 19.41 118.242 8.16-70.761-15.82-125.5-63.73-150.949-128.22zM449.21 166.426a211.215 211.215 0 0 1-7.991 24.539c-25.43 64.43-80.02 112.289-151.04 128.21 39.15 11.11 81.165 7.981 118.333-8.152C495.68 273.183 509.89 191.903 512 188.003c-6.836-2.858-27.61-16.085-62.79-21.577zm0 0" fill="#c4ab69" opacity="1" data-original="#000000" class=""></path></g></svg>