<svg xmlns="http://www.w3.org/2000/svg" version="1.1" xmlns:xlink="http://www.w3.org/1999/xlink" width="512" height="512" x="0" y="0" viewBox="0 0 60 60" style="enable-background:new 0 0 512 512" xml:space="preserve" class=""><g><g fill="#f0c419"><path d="m10.1 11.382 2.1 4.46a.659.659 0 0 0 .5.375l4.706.718a.686.686 0 0 1 .365 1.155l-3.416 3.494a.7.7 0 0 0-.186.6l.8 4.925a.661.661 0 0 1-.956.712L9.82 25.506a.635.635 0 0 0-.618 0L5.01 27.818a.661.661 0 0 1-.956-.712l.8-4.925a.7.7 0 0 0-.185-.6L1.257 18.09a.685.685 0 0 1 .366-1.155l4.706-.718a.659.659 0 0 0 .494-.375l2.1-4.46a.647.647 0 0 1 1.177 0zM30.336 11.382l2.1 4.46a.659.659 0 0 0 .494.375l4.706.718A.685.685 0 0 1 38 18.09l-3.417 3.494a.7.7 0 0 0-.185.6l.8 4.925a.661.661 0 0 1-.956.712l-4.192-2.312a.635.635 0 0 0-.618 0l-4.192 2.312a.661.661 0 0 1-.956-.712l.8-4.925a.7.7 0 0 0-.186-.6l-3.406-3.494a.686.686 0 0 1 .365-1.155l4.706-.718a.659.659 0 0 0 .5-.375l2.1-4.46a.647.647 0 0 1 1.173 0zM51.14 11.382l2.1 4.46a.659.659 0 0 0 .495.375l4.706.718a.686.686 0 0 1 .359 1.155l-3.416 3.494a.7.7 0 0 0-.186.6l.8 4.925a.661.661 0 0 1-.956.712l-4.192-2.312a.635.635 0 0 0-.618 0l-4.192 2.312a.661.661 0 0 1-.956-.712l.8-4.925a.7.7 0 0 0-.185-.6L42.3 18.09a.685.685 0 0 1 .366-1.155l4.7-.718a.659.659 0 0 0 .5-.375l2.1-4.46a.647.647 0 0 1 1.174 0zM19.938 31.482l2.1 4.461a.658.658 0 0 0 .495.374l4.706.718a.686.686 0 0 1 .361 1.155l-3.416 3.5a.693.693 0 0 0-.186.6l.8 4.925a.661.661 0 0 1-.956.713l-4.192-2.313a.64.64 0 0 0-.618 0l-4.192 2.313a.661.661 0 0 1-.955-.713l.8-4.925a.692.692 0 0 0-.185-.6l-3.417-3.5a.685.685 0 0 1 .366-1.155l4.706-.718a.658.658 0 0 0 .494-.374l2.1-4.461a.647.647 0 0 1 1.189 0zM40.743 31.482l2.1 4.461a.658.658 0 0 0 .494.374l4.706.718a.685.685 0 0 1 .366 1.155l-3.417 3.5a.7.7 0 0 0-.186.6l.8 4.925a.661.661 0 0 1-.956.713l-4.192-2.313a.638.638 0 0 0-.617 0l-4.192 2.313a.661.661 0 0 1-.956-.713l.8-4.925a.7.7 0 0 0-.186-.6l-3.407-3.5a.686.686 0 0 1 .366-1.155l4.706-.718a.657.657 0 0 0 .494-.374l2.1-4.461a.648.648 0 0 1 1.177 0z" fill="#c4ab69" opacity="1" data-original="#f0c419" class=""></path></g></g></svg>