<svg xmlns="http://www.w3.org/2000/svg" version="1.1" xmlns:xlink="http://www.w3.org/1999/xlink" width="512" height="512" x="0" y="0" viewBox="0 0 500 500" style="enable-background:new 0 0 512 512" xml:space="preserve" class=""><g><path d="M458.958 242.732c-.716-33.674-9.904-67.242-26.528-96.532 32.137-68.743-7.789-117.539-76.984-76.613-29.109-15.862-62.116-24.805-95.259-24.746-4.549.321 2.899.508 3.786.984-1.95.537-4.485.34-.559.934-4.05-.094-8.476-.151-12.379.217 54.94 3.294 109.854 24.978 145.926 67.736-4.928 15.501-9.565 31.357-19.611 44.475-12.618 16.157-44.58 42.092-64.487 25.254-10.069-17.123 41.196-47.855 23.43-74.87-13.339-20.575-87.831-19.28-100.603 1.65-9.829 19.312 13.368 30.762 5.59 43.469-6.307 10.108-19.476-.917-19.987-10.065-2.188-21.547-18.728-26.258-36.541-17.083-3.156-21.928-2.633-42.335-22.438-57.397 27.477-14.528 57.9-21.533 88.721-24.469C92.933 26.039-14.192 225.911 70.462 354.424c-31.348 69.896 9.225 103.441 77.272 75.012 140.779 78.715 315.131-25.162 311.224-186.704zM384.743 89.285c-7.5-6.086-15.939-11.945-24.282-16.828 54.769-9.966 82.144-2.134 63.06 59.35-10.776-15.893-23.785-30.565-38.778-42.522zm-199.56 39.372.013.022c.055.113.033.086-.013-.022zM55.775 259.31c-1.905-28.971 2.899-58.495 13.699-85.441 11.942 16.027 32.278 26.052 42.019 43.557 2.666 10.377-3.814 13.96-12.069 18.435-19.856 11.442-11.665 41.857-.13 56.553 16.201 15.283 25.1 1.972 40.411 1.615-.724 35.127 16.534 20.596 21.615 38.048 2.313 10.249 5.669 25.297 7.942 35.403-19.369-1.752-34.621 16.203-38.215 33.791C87.1 367.606 58.924 314.609 55.775 259.31zm71.551 162.533c-55.073 17.466-62.806-14.996-53.302-61.647 15.179 23.6 35.267 44.15 58.476 59.912-1.705.62-3.423 1.25-5.174 1.735zm276.211-52.108c-55.313 69.854-159.903 93.338-239.288 52.381 28.35-13.757 55.619-31.019 77.316-53.757 12.159 10.852 25.128 21.244 37.6 31.658.7-.568 1.913-2.045 2.01-2.891h.836c-.465-.576-1.006-1.145-1.52-1.696.442-.53.914-1.065 1.146-1.685-.491.114-1.364.764-1.774 1.016-20.203-20.902-39.98-43.084-60.734-63.697 7.585-7.367 24.549 1.506 34.13 2.245 7.271 3.353 11.519-4.103 16.083-8.48 17.24-17.622 35.479-36.497 52.026-54.718 7.746-2.061 18.744-5.393 26.524-7.659a71833.59 71833.59 0 0 0-7.76 26.597c-20.921 19.445-41.478 39.335-60.931 60.168-3.497 5.094 1.168 12.437 1.876 18.048 1.493 9.066 7.143 18.769 1.479 27.397 15.646-6.715 6.128-26.58 6.647-39.457 4.981-4.155 9.785-8.618 14.648-12.937 7.258 12.374 13.302 25.498 21.187 37.522 5.448 6.591 10.364 29.368 21.862 20.932 12.06-10.73 23.633-23.052 15.056-39.959-5.949-17.783-13.261-35.186-21.826-51.821 4.22-4.751 11.017-8.286 13.539-14.214 3.335-11.852 8.428-29.166 11.686-40.928 1.774-5.262-3.632-10.784-8.966-8.966-8.844 2.659-18.655 5.859-27.415 8.576-18.083 4.749-15.217 4.684-27.647 17.965-11.445-9.716-26.298-13.71-39.973-19.31-21.339-7.64-30.276-11.662-46.679 7.516-5.758 5.906-9.432 10.756.182 15.268 18.397 10.452 35.845 23.532 56.423 29.288-.625.667-15.807 16.87-15.84 16.896-17.715-3-36.245-11.341-48.999 6.439-5.352 6.879 7.795 13.013 11.326 18.01 5.673 5.538 14.58 14.277 20.339 19.712-31.228 13.121-58.055 34.991-89.329 48.32a199.585 199.585 0 0 1-13.516-9.069c27.307-51.461 59.41 6.386 46.786-45.05-4.736-18.492-3.925-44.674-25.778-51.547-5.982-7.684 2.206-20.25-5.736-24.733-28.801-12.867-41.471 25.714-50.349-23.763-2.735-17.386 21.927-15.153 22.937-33.337 3.071-28.574-35.281-39.533-51.764-56.835 17.433-41.249 48.705-76.997 88.599-97.763 4.46 10.307 10.745 20.296 11.977 31.789-.243 20.927-4.108 46.737 26.31 33.817 14.667-4.483 1.408 24.915 28.702 34.716 16.964 7.045 33.1-9.897 30.409-26.691-.788-9.578-11.018-16.986-9.189-26.512 15.85-13.015 56.829-11.986 74.982-3.386 7.11 5.783 1.874 15.155-1.889 21.941-74.099 92.531 71.322 83.383 78.664-18.62 7.139 8.029 13.398 16.936 18.995 26.104-11.949 30.352-32.239 57.022-44.639 86.802.391-.108.572-.632 1.004-.625.251.457.024 1.231.719.666-.328.824-.948 1.493-1.005 2.41 21.887-20.708 37.444-48.538 51.668-75.315 12.705 25.038 19.648 53.143 20.568 81.178-4.628 3.47-8.471 7.753-11.581 12.637-48.465 13.777-32.571 10.795-22.034 52.34-4.3 19.971-7.585 22.776 8.129 38.656a201.425 201.425 0 0 1-18.209 26.411zm-124.035 27.798c.062-.136.165-.3.184-.407h1.443c-.574.243-1.114 1.004-1.675 1.077l.048-.67zm-.192-.407a2.742 2.742 0 0 1-.416.259l.212-.259zm-1.409-100.058c-.718.817-2.317 2.464-3.073 3.288-14.958-12.085-32.037-22.306-48.118-33.276 8.678-13.827 22.565-2.795 34.299.335 11.329 4.745 23.242 6.609 34.964 9.78-6.046 6.595-12.123 13.191-18.072 19.873zm68.391 84.688c-1.197 1.135-2.24 2.416-3.365 3.614-10.888-16.149-19.991-33.968-34.591-47.144 8.273-7.645 16.763-15.531 25.124-23.109 1.392 15.79 7.955 30.906 13.142 45.807 2.704 7.667 7.473 14.26-.31 20.832zm95.299-87.726c-3.606 14.658-9.116 29.039-16.085 42.427-1.658-4.038-2.627-8.096-4.597-11.941 8.529-21.737 3.495-30.294-2.676-51.388 6.972-3.544 26.942-5.888 28.704-13.44-.804 11.576-2.656 23.066-5.346 34.342z" fill="#cba243" opacity="1" data-original="#000000"></path></g></svg>